<svg width="1512" height="851" viewBox="0 0 1512 851" fill="none" xmlns="http://www.w3.org/2000/svg">
<g clip-path="url(#clip0_54_6)">
<path d="M1512 0H0V850.5H1512V0Z" fill="white"/>
<path d="M756 1774.02C1500.91 1774.02 2104.77 1170.16 2104.77 425.25C2104.77 -319.657 1500.91 -923.523 756 -923.523C11.0931 -923.523 -592.773 -319.657 -592.773 425.25C-592.773 1170.16 11.0931 1774.02 756 1774.02Z" fill="black"/>
<path d="M756 1684.1C1451.25 1684.1 2014.85 1120.5 2014.85 425.25C2014.85 -269.996 1451.25 -833.605 756 -833.605C60.7534 -833.605 -502.855 -269.996 -502.855 425.25C-502.855 1120.5 60.7534 1684.1 756 1684.1Z" fill="black"/>
<path d="M756 1594.19C1401.59 1594.19 1924.94 1070.84 1924.94 425.25C1924.94 -220.336 1401.59 -743.686 756 -743.686C110.414 -743.686 -412.937 -220.336 -412.937 425.25C-412.937 1070.84 110.414 1594.19 756 1594.19Z" fill="black"/>
<path d="M756 1504.27C1351.92 1504.27 1835.02 1021.18 1835.02 425.25C1835.02 -170.675 1351.92 -653.768 756 -653.768C160.074 -653.768 -323.019 -170.675 -323.019 425.25C-323.019 1021.18 160.074 1504.27 756 1504.27Z" fill="#144863"/>
<path d="M756 1414.35C1302.26 1414.35 1745.1 971.515 1745.1 425.25C1745.1 -121.015 1302.26 -563.85 756 -563.85C209.735 -563.85 -233.1 -121.015 -233.1 425.25C-233.1 971.515 209.735 1414.35 756 1414.35Z" fill="#125368"/>
<path d="M756 1324.43C1252.6 1324.43 1655.18 921.854 1655.18 425.25C1655.18 -71.3544 1252.6 -473.932 756 -473.932C259.395 -473.932 -143.182 -71.3544 -143.182 425.25C-143.182 921.854 259.395 1324.43 756 1324.43Z" fill="#105E6D"/>
<path d="M756 1234.51C1202.94 1234.51 1565.26 872.194 1565.26 425.25C1565.26 -21.694 1202.94 -384.014 756 -384.014C309.056 -384.014 -53.2642 -21.694 -53.2642 425.25C-53.2642 872.194 309.056 1234.51 756 1234.51Z" fill="#0E6972"/>
<path d="M756 1144.6C1153.28 1144.6 1475.35 822.534 1475.35 425.25C1475.35 27.9665 1153.28 -294.095 756 -294.095C358.717 -294.095 36.6548 27.9665 36.6548 425.25C36.6548 822.534 358.717 1144.6 756 1144.6Z" fill="#0C7477"/>
<path d="M756 1054.68C1103.62 1054.68 1385.43 772.873 1385.43 425.25C1385.43 77.6269 1103.62 -204.177 756 -204.177C408.377 -204.177 126.573 77.6269 126.573 425.25C126.573 772.873 408.377 1054.68 756 1054.68Z" fill="#0A7F7C"/>
<path d="M756 964.759C1053.96 964.759 1295.51 723.213 1295.51 425.25C1295.51 127.287 1053.96 -114.259 756 -114.259C458.037 -114.259 216.491 127.287 216.491 425.25C216.491 723.213 458.037 964.759 756 964.759Z" fill="#088A81"/>
<path d="M756 874.841C1004.3 874.841 1205.59 673.552 1205.59 425.25C1205.59 176.948 1004.3 -24.3409 756 -24.3409C507.697 -24.3409 306.409 176.948 306.409 425.25C306.409 673.552 507.697 874.841 756 874.841Z" fill="#069586"/>
<path d="M756 784.923C954.642 784.923 1115.67 623.892 1115.67 425.25C1115.67 226.608 954.642 65.5773 756 65.5773C557.358 65.5773 396.327 226.608 396.327 425.25C396.327 623.892 557.358 784.923 756 784.923Z" fill="#04A08B"/>
<path d="M756 695.005C904.981 695.005 1025.75 574.231 1025.75 425.25C1025.75 276.269 904.981 155.495 756 155.495C607.019 155.495 486.245 276.269 486.245 425.25C486.245 574.231 607.019 695.005 756 695.005Z" fill="#02AB90"/>
<path d="M756 605.086C855.321 605.086 935.836 524.571 935.836 425.25C935.836 325.929 855.321 245.414 756 245.414C656.679 245.414 576.163 325.929 576.163 425.25C576.163 524.571 656.679 605.086 756 605.086Z" fill="#00B695"/>
<path d="M756 515.168C805.66 515.168 845.918 474.91 845.918 425.25C845.918 375.59 805.66 335.332 756 335.332C706.339 335.332 666.082 375.59 666.082 425.25C666.082 474.91 706.339 515.168 756 515.168Z" fill="#00C19A"/>
</g>
<defs>
<clipPath id="clip0_54_6">
<rect width="1512" height="850.5" fill="white"/>
</clipPath>
</defs>
</svg>
