<svg width="256" height="58" viewBox="0 0 256 58" fill="none" xmlns="http://www.w3.org/2000/svg">
<path d="M10.45 32.325L15.575 15.75H21.075L26.2 32.325L25.75 33H22.75L21.7 29.5H14.95L13.9 33H10.9L10.45 32.325ZM15.925 26.25H20.725L18.525 19H18.125L15.925 26.25ZM32.4504 33V15.75H39.0004C43.7004 15.75 46.0504 18.1 46.0504 22.8V25.95C46.0504 30.65 43.7004 33 39.0004 33H32.4504ZM36.0504 29.75H39.2004C41.3671 29.75 42.4504 28.6667 42.4504 26.5V22.25C42.4504 20.0833 41.3671 19 39.2004 19H36.0504V29.75ZM53.4123 33V15.75H59.9623C64.6623 15.75 67.0123 18.1 67.0123 22.8V25.95C67.0123 30.65 64.6623 33 59.9623 33H53.4123ZM57.0123 29.75H60.1623C62.329 29.75 63.4123 28.6667 63.4123 26.5V22.25C63.4123 20.0833 62.329 19 60.1623 19H57.0123V29.75Z" fill="black"/>
<path d="M115 54.1435C132.839 47.7672 179.438 37.3842 223.125 46.8628" stroke="#37ED81" stroke-width="3"/>
<mask id="path-3-outside-1_132_812" maskUnits="userSpaceOnUse" x="80" y="13" width="97" height="20" fill="black">
<rect fill="white" x="80" y="13" width="97" height="20"/>
<path d="M81.05 32V14.75H89.2C92 14.75 93.4 16.15 93.4 18.95V20.45C93.4 21.0167 93.2333 21.5 92.9 21.9L92.025 22.95L93.075 23.825C93.625 24.275 93.9 24.9417 93.9 25.825V27.8C93.9 30.6 92.5 32 89.7 32H81.05ZM84.65 28.75H89.55C90.05 28.75 90.3 28.5 90.3 28V25.5C90.3 25 90.05 24.75 89.55 24.75H84.65V28.75ZM84.65 21.5H89.05C89.55 21.5 89.8 21.25 89.8 20.75V18.75C89.8 18.25 89.55 18 89.05 18H84.65V21.5ZM100.859 27.8V18.95C100.859 16.15 102.259 14.75 105.059 14.75H110.759C113.559 14.75 114.959 16.15 114.959 18.95V27.8C114.959 30.6 113.559 32 110.759 32H105.059C102.259 32 100.859 30.6 100.859 27.8ZM104.459 28C104.459 28.5 104.709 28.75 105.209 28.75H110.609C111.109 28.75 111.359 28.5 111.359 28V18.75C111.359 18.25 111.109 18 110.609 18H105.209C104.709 18 104.459 18.25 104.459 18.75V28ZM122.309 27.8V18.95C122.309 16.15 123.709 14.75 126.509 14.75H132.209C135.009 14.75 136.409 16.15 136.409 18.95V27.8C136.409 30.6 135.009 32 132.209 32H126.509C123.709 32 122.309 30.6 122.309 27.8ZM125.909 28C125.909 28.5 126.159 28.75 126.659 28.75H132.059C132.559 28.75 132.809 28.5 132.809 28V18.75C132.809 18.25 132.559 18 132.059 18H126.659C126.159 18 125.909 18.25 125.909 18.75V28ZM144.009 32V14.75H147.609V21.575L153.709 14.75H157.084L157.434 15.475L151.709 21.85L158.059 31.275L157.734 32H154.409L149.384 24.45L147.609 26.375V32H144.009ZM163.806 30.7V28.75H171.556C172.056 28.75 172.306 28.5 172.306 28V26.2C172.306 25.7167 172.098 25.4417 171.681 25.375L166.806 24.375C164.806 23.975 163.806 22.6333 163.806 20.35V18.95C163.806 16.15 165.206 14.75 168.006 14.75H173.731L175.406 16.05V18H168.156C167.656 18 167.406 18.25 167.406 18.75V20.375C167.406 20.8417 167.614 21.1167 168.031 21.2L172.906 22.175C174.906 22.575 175.906 23.9167 175.906 26.2V27.8C175.906 30.6 174.506 32 171.706 32H165.481L163.806 30.7Z"/>
</mask>
<path d="M81.05 32V14.75H89.2C92 14.75 93.4 16.15 93.4 18.95V20.45C93.4 21.0167 93.2333 21.5 92.9 21.9L92.025 22.95L93.075 23.825C93.625 24.275 93.9 24.9417 93.9 25.825V27.8C93.9 30.6 92.5 32 89.7 32H81.05ZM84.65 28.75H89.55C90.05 28.75 90.3 28.5 90.3 28V25.5C90.3 25 90.05 24.75 89.55 24.75H84.65V28.75ZM84.65 21.5H89.05C89.55 21.5 89.8 21.25 89.8 20.75V18.75C89.8 18.25 89.55 18 89.05 18H84.65V21.5ZM100.859 27.8V18.95C100.859 16.15 102.259 14.75 105.059 14.75H110.759C113.559 14.75 114.959 16.15 114.959 18.95V27.8C114.959 30.6 113.559 32 110.759 32H105.059C102.259 32 100.859 30.6 100.859 27.8ZM104.459 28C104.459 28.5 104.709 28.75 105.209 28.75H110.609C111.109 28.75 111.359 28.5 111.359 28V18.75C111.359 18.25 111.109 18 110.609 18H105.209C104.709 18 104.459 18.25 104.459 18.75V28ZM122.309 27.8V18.95C122.309 16.15 123.709 14.75 126.509 14.75H132.209C135.009 14.75 136.409 16.15 136.409 18.95V27.8C136.409 30.6 135.009 32 132.209 32H126.509C123.709 32 122.309 30.6 122.309 27.8ZM125.909 28C125.909 28.5 126.159 28.75 126.659 28.75H132.059C132.559 28.75 132.809 28.5 132.809 28V18.75C132.809 18.25 132.559 18 132.059 18H126.659C126.159 18 125.909 18.25 125.909 18.75V28ZM144.009 32V14.75H147.609V21.575L153.709 14.75H157.084L157.434 15.475L151.709 21.85L158.059 31.275L157.734 32H154.409L149.384 24.45L147.609 26.375V32H144.009ZM163.806 30.7V28.75H171.556C172.056 28.75 172.306 28.5 172.306 28V26.2C172.306 25.7167 172.098 25.4417 171.681 25.375L166.806 24.375C164.806 23.975 163.806 22.6333 163.806 20.35V18.95C163.806 16.15 165.206 14.75 168.006 14.75H173.731L175.406 16.05V18H168.156C167.656 18 167.406 18.25 167.406 18.75V20.375C167.406 20.8417 167.614 21.1167 168.031 21.2L172.906 22.175C174.906 22.575 175.906 23.9167 175.906 26.2V27.8C175.906 30.6 174.506 32 171.706 32H165.481L163.806 30.7Z" fill="white"/>
<path d="M81.05 32H80.05V33H81.05V32ZM81.05 14.75V13.75H80.05V14.75H81.05ZM92.9 21.9L93.6682 22.5402L93.6682 22.5402L92.9 21.9ZM92.025 22.95L91.2568 22.3098L90.6166 23.078L91.3848 23.7182L92.025 22.95ZM93.075 23.825L92.4348 24.5933L92.4418 24.599L93.075 23.825ZM84.65 28.75H83.65V29.75H84.65V28.75ZM84.65 24.75V23.75H83.65V24.75H84.65ZM84.65 21.5H83.65V22.5H84.65V21.5ZM84.65 18V17H83.65V18H84.65ZM82.05 32V14.75H80.05V32H82.05ZM81.05 15.75H89.2V13.75H81.05V15.75ZM89.2 15.75C90.4459 15.75 91.1966 16.0608 91.6429 16.5071C92.0892 16.9534 92.4 17.7041 92.4 18.95H94.4C94.4 17.3959 94.0108 16.0466 93.0571 15.0929C92.1034 14.1392 90.7541 13.75 89.2 13.75V15.75ZM92.4 18.95V20.45H94.4V18.95H92.4ZM92.4 20.45C92.4 20.8049 92.3017 21.0559 92.1318 21.2598L93.6682 22.5402C94.1649 21.9441 94.4 21.2284 94.4 20.45H92.4ZM92.1318 21.2598L91.2568 22.3098L92.7932 23.5902L93.6682 22.5402L92.1318 21.2598ZM91.3848 23.7182L92.4348 24.5932L93.7152 23.0568L92.6652 22.1818L91.3848 23.7182ZM92.4418 24.599C92.7042 24.8137 92.9 25.1618 92.9 25.825H94.9C94.9 24.7215 94.5458 23.7363 93.7082 23.051L92.4418 24.599ZM92.9 25.825V27.8H94.9V25.825H92.9ZM92.9 27.8C92.9 29.0459 92.5892 29.7966 92.1429 30.2429C91.6966 30.6892 90.9459 31 89.7 31V33C91.2541 33 92.6034 32.6108 93.5571 31.6571C94.5108 30.7034 94.9 29.3541 94.9 27.8H92.9ZM89.7 31H81.05V33H89.7V31ZM84.65 29.75H89.55V27.75H84.65V29.75ZM89.55 29.75C89.9541 29.75 90.4409 29.6483 90.8196 29.2696C91.1983 28.8909 91.3 28.4041 91.3 28H89.3C89.3 28.0959 89.2767 27.9841 89.4054 27.8554C89.5341 27.7267 89.6459 27.75 89.55 27.75V29.75ZM91.3 28V25.5H89.3V28H91.3ZM91.3 25.5C91.3 25.0959 91.1983 24.6091 90.8196 24.2304C90.4409 23.8517 89.9541 23.75 89.55 23.75V25.75C89.6459 25.75 89.5341 25.7733 89.4054 25.6446C89.2767 25.5159 89.3 25.4041 89.3 25.5H91.3ZM89.55 23.75H84.65V25.75H89.55V23.75ZM83.65 24.75V28.75H85.65V24.75H83.65ZM84.65 22.5H89.05V20.5H84.65V22.5ZM89.05 22.5C89.4541 22.5 89.9409 22.3983 90.3196 22.0196C90.6983 21.6409 90.8 21.1541 90.8 20.75H88.8C88.8 20.8459 88.7767 20.7341 88.9054 20.6054C89.0341 20.4767 89.1459 20.5 89.05 20.5V22.5ZM90.8 20.75V18.75H88.8V20.75H90.8ZM90.8 18.75C90.8 18.3459 90.6983 17.8591 90.3196 17.4804C89.9409 17.1017 89.4541 17 89.05 17V19C89.1459 19 89.0341 19.0233 88.9054 18.8946C88.7767 18.7659 88.8 18.6541 88.8 18.75H90.8ZM89.05 17H84.65V19H89.05V17ZM83.65 18V21.5H85.65V18H83.65ZM101.859 27.8V18.95H99.8586V27.8H101.859ZM101.859 18.95C101.859 17.7041 102.169 16.9534 102.616 16.5071C103.062 16.0608 103.813 15.75 105.059 15.75V13.75C103.504 13.75 102.155 14.1392 101.201 15.0929C100.248 16.0466 99.8586 17.3959 99.8586 18.95H101.859ZM105.059 15.75H110.759V13.75H105.059V15.75ZM110.759 15.75C112.004 15.75 112.755 16.0608 113.201 16.5071C113.648 16.9534 113.959 17.7041 113.959 18.95H115.959C115.959 17.3959 115.569 16.0466 114.616 15.0929C113.662 14.1392 112.313 13.75 110.759 13.75V15.75ZM113.959 18.95V27.8H115.959V18.95H113.959ZM113.959 27.8C113.959 29.0459 113.648 29.7966 113.201 30.2429C112.755 30.6892 112.004 31 110.759 31V33C112.313 33 113.662 32.6108 114.616 31.6571C115.569 30.7034 115.959 29.3541 115.959 27.8H113.959ZM110.759 31H105.059V33H110.759V31ZM105.059 31C103.813 31 103.062 30.6892 102.616 30.2429C102.169 29.7966 101.859 29.0459 101.859 27.8H99.8586C99.8586 29.3541 100.248 30.7034 101.201 31.6571C102.155 32.6108 103.504 33 105.059 33V31ZM103.459 28C103.459 28.4041 103.56 28.8909 103.939 29.2696C104.318 29.6483 104.804 29.75 105.209 29.75V27.75C105.113 27.75 105.225 27.7267 105.353 27.8554C105.482 27.9841 105.459 28.0959 105.459 28H103.459ZM105.209 29.75H110.609V27.75H105.209V29.75ZM110.609 29.75C111.013 29.75 111.5 29.6483 111.878 29.2696C112.257 28.8909 112.359 28.4041 112.359 28H110.359C110.359 28.0959 110.335 27.9841 110.464 27.8554C110.593 27.7267 110.704 27.75 110.609 27.75V29.75ZM112.359 28V18.75H110.359V28H112.359ZM112.359 18.75C112.359 18.3459 112.257 17.8591 111.878 17.4804C111.5 17.1017 111.013 17 110.609 17V19C110.704 19 110.593 19.0233 110.464 18.8946C110.335 18.7659 110.359 18.6541 110.359 18.75H112.359ZM110.609 17H105.209V19H110.609V17ZM105.209 17C104.804 17 104.318 17.1017 103.939 17.4804C103.56 17.8591 103.459 18.3459 103.459 18.75H105.459C105.459 18.6541 105.482 18.7659 105.353 18.8946C105.225 19.0233 105.113 19 105.209 19V17ZM103.459 18.75V28H105.459V18.75H103.459ZM123.309 27.8V18.95H121.309V27.8H123.309ZM123.309 18.95C123.309 17.7041 123.62 16.9534 124.066 16.5071C124.512 16.0608 125.263 15.75 126.509 15.75V13.75C124.955 13.75 123.605 14.1392 122.652 15.0929C121.698 16.0466 121.309 17.3959 121.309 18.95H123.309ZM126.509 15.75H132.209V13.75H126.509V15.75ZM132.209 15.75C133.455 15.75 134.205 16.0608 134.652 16.5071C135.098 16.9534 135.409 17.7041 135.409 18.95H137.409C137.409 17.3959 137.02 16.0466 136.066 15.0929C135.112 14.1392 133.763 13.75 132.209 13.75V15.75ZM135.409 18.95V27.8H137.409V18.95H135.409ZM135.409 27.8C135.409 29.0459 135.098 29.7966 134.652 30.2429C134.205 30.6892 133.455 31 132.209 31V33C133.763 33 135.112 32.6108 136.066 31.6571C137.02 30.7034 137.409 29.3541 137.409 27.8H135.409ZM132.209 31H126.509V33H132.209V31ZM126.509 31C125.263 31 124.512 30.6892 124.066 30.2429C123.62 29.7966 123.309 29.0459 123.309 27.8H121.309C121.309 29.3541 121.698 30.7034 122.652 31.6571C123.605 32.6108 124.955 33 126.509 33V31ZM124.909 28C124.909 28.4041 125.011 28.8909 125.389 29.2696C125.768 29.6483 126.255 29.75 126.659 29.75V27.75C126.563 27.75 126.675 27.7267 126.803 27.8554C126.932 27.9841 126.909 28.0959 126.909 28H124.909ZM126.659 29.75H132.059V27.75H126.659V29.75ZM132.059 29.75C132.463 29.75 132.95 29.6483 133.328 29.2696C133.707 28.8909 133.809 28.4041 133.809 28H131.809C131.809 28.0959 131.786 27.9841 131.914 27.8554C132.043 27.7267 132.155 27.75 132.059 27.75V29.75ZM133.809 28V18.75H131.809V28H133.809ZM133.809 18.75C133.809 18.3459 133.707 17.8591 133.328 17.4804C132.95 17.1017 132.463 17 132.059 17V19C132.155 19 132.043 19.0233 131.914 18.8946C131.786 18.7659 131.809 18.6541 131.809 18.75H133.809ZM132.059 17H126.659V19H132.059V17ZM126.659 17C126.255 17 125.768 17.1017 125.389 17.4804C125.011 17.8591 124.909 18.3459 124.909 18.75H126.909C126.909 18.6541 126.932 18.7659 126.803 18.8946C126.675 19.0233 126.563 19 126.659 19V17ZM124.909 18.75V28H126.909V18.75H124.909ZM144.009 32H143.009V33H144.009V32ZM144.009 14.75V13.75H143.009V14.75H144.009ZM147.609 14.75H148.609V13.75H147.609V14.75ZM147.609 21.575H146.609V24.1945L148.355 22.2414L147.609 21.575ZM153.709 14.75V13.75H153.262L152.963 14.0836L153.709 14.75ZM157.084 14.75L157.985 14.3153L157.712 13.75H157.084V14.75ZM157.434 15.475L158.178 16.1432L158.626 15.6442L158.335 15.0403L157.434 15.475ZM151.709 21.85L150.965 21.1818L150.444 21.762L150.88 22.4088L151.709 21.85ZM158.059 31.275L158.971 31.6841L159.199 31.177L158.888 30.7162L158.059 31.275ZM157.734 32V33H158.382L158.646 32.4091L157.734 32ZM154.409 32L153.577 32.5541L153.873 33H154.409V32ZM149.384 24.45L150.216 23.8959L149.511 22.8366L148.649 23.7721L149.384 24.45ZM147.609 26.375L146.874 25.6971L146.609 25.9843V26.375H147.609ZM147.609 32V33H148.609V32H147.609ZM145.009 32V14.75H143.009V32H145.009ZM144.009 15.75H147.609V13.75H144.009V15.75ZM146.609 14.75V21.575H148.609V14.75H146.609ZM148.355 22.2414L154.455 15.4164L152.963 14.0836L146.863 20.9086L148.355 22.2414ZM153.709 15.75H157.084V13.75H153.709V15.75ZM156.183 15.1847L156.533 15.9097L158.335 15.0403L157.985 14.3153L156.183 15.1847ZM156.69 14.8068L150.965 21.1818L152.453 22.5182L158.178 16.1432L156.69 14.8068ZM150.88 22.4088L157.23 31.8338L158.888 30.7162L152.538 21.2912L150.88 22.4088ZM157.146 30.8659L156.821 31.5909L158.646 32.4091L158.971 31.6841L157.146 30.8659ZM157.734 31H154.409V33H157.734V31ZM155.241 31.4459L150.216 23.8959L148.552 25.0041L153.577 32.5541L155.241 31.4459ZM148.649 23.7721L146.874 25.6971L148.344 27.0529L150.119 25.1279L148.649 23.7721ZM146.609 26.375V32H148.609V26.375H146.609ZM147.609 31H144.009V33H147.609V31ZM163.806 30.7H162.806V31.1897L163.193 31.49L163.806 30.7ZM163.806 28.75V27.75H162.806V28.75H163.806ZM171.681 25.375L171.48 26.3546L171.501 26.359L171.523 26.3624L171.681 25.375ZM166.806 24.375L167.007 23.3954L167.002 23.3944L166.806 24.375ZM173.731 14.75L174.344 13.96L174.073 13.75H173.731V14.75ZM175.406 16.05H176.406V15.5603L176.019 15.26L175.406 16.05ZM175.406 18V19H176.406V18H175.406ZM168.031 21.2L168.227 20.2194L168.227 20.2194L168.031 21.2ZM172.906 22.175L172.71 23.1556L172.71 23.1556L172.906 22.175ZM165.481 32L164.868 32.79L165.138 33H165.481V32ZM164.806 30.7V28.75H162.806V30.7H164.806ZM163.806 29.75H171.556V27.75H163.806V29.75ZM171.556 29.75C171.96 29.75 172.447 29.6483 172.825 29.2696C173.204 28.8909 173.306 28.4041 173.306 28H171.306C171.306 28.0959 171.283 27.9841 171.411 27.8554C171.54 27.7267 171.652 27.75 171.556 27.75V29.75ZM173.306 28V26.2H171.306V28H173.306ZM173.306 26.2C173.306 25.8257 173.226 25.3963 172.947 25.0274C172.654 24.6406 172.242 24.452 171.839 24.3876L171.523 26.3624C171.535 26.3643 171.513 26.3626 171.475 26.3415C171.433 26.3187 171.389 26.2826 171.353 26.2351C171.281 26.1412 171.306 26.091 171.306 26.2H173.306ZM171.882 24.3954L167.007 23.3954L166.605 25.3546L171.48 26.3546L171.882 24.3954ZM167.002 23.3944C166.189 23.2318 165.679 22.9027 165.358 22.4711C165.026 22.0261 164.806 21.3536 164.806 20.35H162.806C162.806 21.6298 163.086 22.7698 163.754 23.6664C164.432 24.5765 165.423 25.1182 166.61 25.3556L167.002 23.3944ZM164.806 20.35V18.95H162.806V20.35H164.806ZM164.806 18.95C164.806 17.7041 165.117 16.9534 165.563 16.5071C166.009 16.0608 166.76 15.75 168.006 15.75V13.75C166.452 13.75 165.102 14.1392 164.149 15.0929C163.195 16.0466 162.806 17.3959 162.806 18.95H164.806ZM168.006 15.75H173.731V13.75H168.006V15.75ZM173.118 15.54L174.793 16.84L176.019 15.26L174.344 13.96L173.118 15.54ZM174.406 16.05V18H176.406V16.05H174.406ZM175.406 17H168.156V19H175.406V17ZM168.156 17C167.752 17 167.265 17.1017 166.886 17.4804C166.508 17.8591 166.406 18.3459 166.406 18.75H168.406C168.406 18.6541 168.429 18.7659 168.3 18.8946C168.172 19.0233 168.06 19 168.156 19V17ZM166.406 18.75V20.375H168.406V18.75H166.406ZM166.406 20.375C166.406 20.7503 166.49 21.1716 166.765 21.5351C167.049 21.9098 167.445 22.1026 167.835 22.1806L168.227 20.2194C168.21 20.2161 168.224 20.2165 168.255 20.234C168.288 20.2531 168.327 20.2843 168.359 20.3274C168.426 20.4159 168.406 20.4664 168.406 20.375H166.406ZM167.835 22.1806L172.71 23.1556L173.102 21.1944L168.227 20.2194L167.835 22.1806ZM172.71 23.1556C173.523 23.3182 174.032 23.6473 174.354 24.0789C174.686 24.5239 174.906 25.1964 174.906 26.2H176.906C176.906 24.9202 176.626 23.7802 175.958 22.8836C175.279 21.9735 174.289 21.4318 173.102 21.1944L172.71 23.1556ZM174.906 26.2V27.8H176.906V26.2H174.906ZM174.906 27.8C174.906 29.0459 174.595 29.7966 174.149 30.2429C173.702 30.6892 172.952 31 171.706 31V33C173.26 33 174.609 32.6108 175.563 31.6571C176.517 30.7034 176.906 29.3541 176.906 27.8H174.906ZM171.706 31H165.481V33H171.706V31ZM166.094 31.21L164.419 29.91L163.193 31.49L164.868 32.79L166.094 31.21Z" fill="black" mask="url(#path-3-outside-1_132_812)"/>
</svg>
