<svg width="213" height="53" viewBox="0 0 213 53" fill="none" xmlns="http://www.w3.org/2000/svg">
<path d="M11.8 28.8V19.95C11.8 17.15 13.2 15.75 16 15.75H22.675L24.35 17.05V19H16.15C15.65 19 15.4 19.25 15.4 19.75V29C15.4 29.5 15.65 29.75 16.15 29.75H24.35V31.7L22.675 33H16C13.2 33 11.8 31.6 11.8 28.8ZM31.4006 33V15.75H35.0006V22.5H41.4006V15.75H45.0006V33H41.4006V25.75H35.0006V33H31.4006ZM52.8508 33V15.75H64.6508V19H56.4508V22.5H63.9008V25.75H56.4508V29.75H64.6508V33H52.8508ZM71.4387 28.8V19.95C71.4387 17.15 72.8387 15.75 75.6387 15.75H82.3137L83.9887 17.05V19H75.7887C75.2887 19 75.0387 19.25 75.0387 19.75V29C75.0387 29.5 75.2887 29.75 75.7887 29.75H83.9887V31.7L82.3137 33H75.6387C72.8387 33 71.4387 31.6 71.4387 28.8ZM91.0393 33V15.75H94.6393V22.575L100.739 15.75H104.114L104.464 16.475L98.7393 22.85L105.089 32.275L104.764 33H101.439L96.4143 25.45L94.6393 27.375V33H91.0393Z" fill="black"/>
<path d="M104 49.1435C121.839 42.7672 168.438 32.3842 212.125 41.8628" stroke="#37ED81" stroke-width="3"/>
<mask id="path-3-outside-1_153_109" maskUnits="userSpaceOnUse" x="110" y="13" width="48" height="20" fill="black">
<rect fill="white" x="110" y="13" width="48" height="20"/>
<path d="M111.6 27.95V22.85C111.6 20.15 112.95 18.8 115.65 18.8H119.15C121.85 18.8 123.2 20.15 123.2 22.85V27.95C123.2 30.65 121.85 32 119.15 32H115.65C112.95 32 111.6 30.65 111.6 27.95ZM115.05 28.2C115.05 28.7333 115.317 29 115.85 29H118.95C119.483 29 119.75 28.7333 119.75 28.2V22.6C119.75 22.0667 119.483 21.8 118.95 21.8H115.85C115.317 21.8 115.05 22.0667 115.05 22.6V28.2ZM130.245 27.95V18.8H133.695V28.2C133.695 28.7333 133.962 29 134.495 29H138.145V18.8H141.595V32H134.295C131.595 32 130.245 30.65 130.245 27.95ZM148.839 27.95V14.75H152.289V18.8H156.589V21.8H152.289V28.2C152.289 28.7333 152.555 29 153.089 29H156.839V30.875L155.339 32H152.889C150.189 32 148.839 30.65 148.839 27.95Z"/>
</mask>
<path d="M111.6 27.95V22.85C111.6 20.15 112.95 18.8 115.65 18.8H119.15C121.85 18.8 123.2 20.15 123.2 22.85V27.95C123.2 30.65 121.85 32 119.15 32H115.65C112.95 32 111.6 30.65 111.6 27.95ZM115.05 28.2C115.05 28.7333 115.317 29 115.85 29H118.95C119.483 29 119.75 28.7333 119.75 28.2V22.6C119.75 22.0667 119.483 21.8 118.95 21.8H115.85C115.317 21.8 115.05 22.0667 115.05 22.6V28.2ZM130.245 27.95V18.8H133.695V28.2C133.695 28.7333 133.962 29 134.495 29H138.145V18.8H141.595V32H134.295C131.595 32 130.245 30.65 130.245 27.95ZM148.839 27.95V14.75H152.289V18.8H156.589V21.8H152.289V28.2C152.289 28.7333 152.555 29 153.089 29H156.839V30.875L155.339 32H152.889C150.189 32 148.839 30.65 148.839 27.95Z" fill="white"/>
<path d="M112.6 27.95V22.85H110.6V27.95H112.6ZM112.6 22.85C112.6 21.6541 112.898 20.9409 113.32 20.5196C113.741 20.0983 114.454 19.8 115.65 19.8V17.8C114.146 17.8 112.834 18.1767 111.905 19.1054C110.977 20.0341 110.6 21.3459 110.6 22.85H112.6ZM115.65 19.8H119.15V17.8H115.65V19.8ZM119.15 19.8C120.346 19.8 121.059 20.0983 121.48 20.5196C121.902 20.9409 122.2 21.6541 122.2 22.85H124.2C124.2 21.3459 123.823 20.0341 122.895 19.1054C121.966 18.1767 120.654 17.8 119.15 17.8V19.8ZM122.2 22.85V27.95H124.2V22.85H122.2ZM122.2 27.95C122.2 29.1459 121.902 29.8591 121.48 30.2804C121.059 30.7017 120.346 31 119.15 31V33C120.654 33 121.966 32.6233 122.895 31.6946C123.823 30.7659 124.2 29.4541 124.2 27.95H122.2ZM119.15 31H115.65V33H119.15V31ZM115.65 31C114.454 31 113.741 30.7017 113.32 30.2804C112.898 29.8591 112.6 29.1459 112.6 27.95H110.6C110.6 29.4541 110.977 30.7659 111.905 31.6946C112.834 32.6233 114.146 33 115.65 33V31ZM114.05 28.2C114.05 28.6208 114.156 29.1201 114.543 29.5071C114.93 29.8941 115.429 30 115.85 30V28C115.737 28 115.837 27.9725 115.957 28.0929C116.077 28.2132 116.05 28.3125 116.05 28.2H114.05ZM115.85 30H118.95V28H115.85V30ZM118.95 30C119.371 30 119.87 29.8941 120.257 29.5071C120.644 29.1201 120.75 28.6208 120.75 28.2H118.75C118.75 28.3125 118.723 28.2132 118.843 28.0929C118.963 27.9725 119.063 28 118.95 28V30ZM120.75 28.2V22.6H118.75V28.2H120.75ZM120.75 22.6C120.75 22.1792 120.644 21.6799 120.257 21.2929C119.87 20.9059 119.371 20.8 118.95 20.8V22.8C119.063 22.8 118.963 22.8275 118.843 22.7071C118.723 22.5868 118.75 22.4875 118.75 22.6H120.75ZM118.95 20.8H115.85V22.8H118.95V20.8ZM115.85 20.8C115.429 20.8 114.93 20.9059 114.543 21.2929C114.156 21.6799 114.05 22.1792 114.05 22.6H116.05C116.05 22.4875 116.077 22.5868 115.957 22.7071C115.837 22.8275 115.737 22.8 115.85 22.8V20.8ZM114.05 22.6V28.2H116.05V22.6H114.05ZM130.245 18.8V17.8H129.245V18.8H130.245ZM133.695 18.8H134.695V17.8H133.695V18.8ZM138.145 29V30H139.145V29H138.145ZM138.145 18.8V17.8H137.145V18.8H138.145ZM141.595 18.8H142.595V17.8H141.595V18.8ZM141.595 32V33H142.595V32H141.595ZM131.245 27.95V18.8H129.245V27.95H131.245ZM130.245 19.8H133.695V17.8H130.245V19.8ZM132.695 18.8V28.2H134.695V18.8H132.695ZM132.695 28.2C132.695 28.6208 132.801 29.1201 133.188 29.5071C133.575 29.8941 134.074 30 134.495 30V28C134.382 28 134.482 27.9725 134.602 28.0929C134.722 28.2132 134.695 28.3125 134.695 28.2H132.695ZM134.495 30H138.145V28H134.495V30ZM139.145 29V18.8H137.145V29H139.145ZM138.145 19.8H141.595V17.8H138.145V19.8ZM140.595 18.8V32H142.595V18.8H140.595ZM141.595 31H134.295V33H141.595V31ZM134.295 31C133.099 31 132.386 30.7017 131.965 30.2804C131.543 29.8591 131.245 29.1459 131.245 27.95H129.245C129.245 29.4541 129.622 30.7659 130.55 31.6946C131.479 32.6233 132.791 33 134.295 33V31ZM148.839 14.75V13.75H147.839V14.75H148.839ZM152.289 14.75H153.289V13.75H152.289V14.75ZM152.289 18.8H151.289V19.8H152.289V18.8ZM156.589 18.8H157.589V17.8H156.589V18.8ZM156.589 21.8V22.8H157.589V21.8H156.589ZM152.289 21.8V20.8H151.289V21.8H152.289ZM156.839 29H157.839V28H156.839V29ZM156.839 30.875L157.439 31.675L157.839 31.375V30.875H156.839ZM155.339 32V33H155.672L155.939 32.8L155.339 32ZM149.839 27.95V14.75H147.839V27.95H149.839ZM148.839 15.75H152.289V13.75H148.839V15.75ZM151.289 14.75V18.8H153.289V14.75H151.289ZM152.289 19.8H156.589V17.8H152.289V19.8ZM155.589 18.8V21.8H157.589V18.8H155.589ZM156.589 20.8H152.289V22.8H156.589V20.8ZM151.289 21.8V28.2H153.289V21.8H151.289ZM151.289 28.2C151.289 28.6208 151.395 29.1201 151.782 29.5071C152.169 29.8941 152.668 30 153.089 30V28C152.976 28 153.075 27.9725 153.196 28.0929C153.316 28.2132 153.289 28.3125 153.289 28.2H151.289ZM153.089 30H156.839V28H153.089V30ZM155.839 29V30.875H157.839V29H155.839ZM156.239 30.075L154.739 31.2L155.939 32.8L157.439 31.675L156.239 30.075ZM155.339 31H152.889V33H155.339V31ZM152.889 31C151.693 31 150.98 30.7017 150.558 30.2804C150.137 29.8591 149.839 29.1459 149.839 27.95H147.839C147.839 29.4541 148.215 30.7659 149.144 31.6946C150.073 32.6233 151.385 33 152.889 33V31Z" fill="black" mask="url(#path-3-outside-1_153_109)"/>
</svg>
