<svg width="272" height="58" viewBox="0 0 272 58" fill="none" xmlns="http://www.w3.org/2000/svg">
<path d="M12.05 33V15.75H20.2C23 15.75 24.4 17.15 24.4 19.95V21.45C24.4 22.0167 24.2333 22.5 23.9 22.9L23.025 23.95L24.075 24.825C24.625 25.275 24.9 25.9417 24.9 26.825V28.8C24.9 31.6 23.5 33 20.7 33H12.05ZM15.65 29.75H20.55C21.05 29.75 21.3 29.5 21.3 29V26.5C21.3 26 21.05 25.75 20.55 25.75H15.65V29.75ZM15.65 22.5H20.05C20.55 22.5 20.8 22.25 20.8 21.75V19.75C20.8 19.25 20.55 19 20.05 19H15.65V22.5ZM31.8586 28.8V19.95C31.8586 17.15 33.2586 15.75 36.0586 15.75H41.7586C44.5586 15.75 45.9586 17.15 45.9586 19.95V28.8C45.9586 31.6 44.5586 33 41.7586 33H36.0586C33.2586 33 31.8586 31.6 31.8586 28.8ZM35.4586 29C35.4586 29.5 35.7086 29.75 36.2086 29.75H41.6086C42.1086 29.75 42.3586 29.5 42.3586 29V19.75C42.3586 19.25 42.1086 19 41.6086 19H36.2086C35.7086 19 35.4586 19.25 35.4586 19.75V29ZM53.3088 28.8V19.95C53.3088 17.15 54.7088 15.75 57.5088 15.75H63.2088C66.0088 15.75 67.4088 17.15 67.4088 19.95V28.8C67.4088 31.6 66.0088 33 63.2088 33H57.5088C54.7088 33 53.3088 31.6 53.3088 28.8ZM56.9088 29C56.9088 29.5 57.1588 29.75 57.6588 29.75H63.0588C63.5588 29.75 63.8088 29.5 63.8088 29V19.75C63.8088 19.25 63.5588 19 63.0588 19H57.6588C57.1588 19 56.9088 19.25 56.9088 19.75V29ZM75.009 33V15.75H78.609V22.575L84.709 15.75H88.084L88.434 16.475L82.709 22.85L89.059 32.275L88.734 33H85.409L80.384 25.45L78.609 27.375V33H75.009Z" fill="black"/>
<path d="M134 54.1435C151.839 47.7672 198.438 37.3842 242.125 46.8628" stroke="#37ED81" stroke-width="3"/>
<mask id="path-3-outside-1_15_3951" maskUnits="userSpaceOnUse" x="96" y="12" width="105" height="22" fill="black">
<rect fill="white" x="96" y="12" width="105" height="22"/>
<path d="M97.05 32V14.75H103.6C108.3 14.75 110.65 17.1 110.65 21.8V24.95C110.65 29.65 108.3 32 103.6 32H97.05ZM100.65 28.75H103.8C105.967 28.75 107.05 27.6667 107.05 25.5V21.25C107.05 19.0833 105.967 18 103.8 18H100.65V28.75ZM117.562 27.95V22.85C117.562 20.15 118.912 18.8 121.612 18.8H124.862C127.562 18.8 128.912 20.15 128.912 22.85V26.675H121.012V28.2C121.012 28.7333 121.279 29 121.812 29H128.412V30.875L126.912 32H121.612C118.912 32 117.562 30.65 117.562 27.95ZM121.012 24.025H125.462V22.6C125.462 22.0667 125.195 21.8 124.662 21.8H121.812C121.279 21.8 121.012 22.0667 121.012 22.6V24.025ZM135.963 27.95V14.75H139.413V18.8H143.713V21.8H139.413V28.2C139.413 28.7333 139.679 29 140.213 29H143.963V30.875L142.463 32H140.013C137.313 32 135.963 30.65 135.963 27.95ZM153.758 32C151.058 32 149.708 30.675 149.708 28.025C149.708 25.375 151.058 24.05 153.758 24.05H157.208V22.6C157.208 22.0667 156.942 21.8 156.408 21.8H151.108V19.925L152.608 18.8H156.608C159.308 18.8 160.658 20.15 160.658 22.85V32H153.758ZM153.158 28.2C153.158 28.7333 153.425 29 153.958 29H157.208V26.7H153.958C153.425 26.7 153.158 26.9667 153.158 27.5V28.2ZM167.829 16.625V13.25H171.429V16.625H167.829ZM167.904 32V18.8H171.354V32H167.904ZM178.609 27.2V13.5H182.059V27.55C182.059 28.5833 182.593 29.1583 183.659 29.275V32.25C180.293 32.25 178.609 30.5667 178.609 27.2ZM189.748 30.875V29H195.498C196.065 29 196.348 28.6833 196.348 28.05C196.348 27.4 196.115 27.0333 195.648 26.95L192.948 26.5C190.815 26.1333 189.748 24.9 189.748 22.8C189.748 20.1333 191.098 18.8 193.798 18.8H197.673L199.173 19.925V21.8H193.998C193.432 21.8 193.148 22.1167 193.148 22.75C193.148 23.4167 193.407 23.7917 193.923 23.875L196.598 24.325C198.715 24.675 199.773 25.8917 199.773 27.975C199.773 30.6583 198.415 32 195.698 32H191.248L189.748 30.875Z"/>
</mask>
<path d="M97.05 32V14.75H103.6C108.3 14.75 110.65 17.1 110.65 21.8V24.95C110.65 29.65 108.3 32 103.6 32H97.05ZM100.65 28.75H103.8C105.967 28.75 107.05 27.6667 107.05 25.5V21.25C107.05 19.0833 105.967 18 103.8 18H100.65V28.75ZM117.562 27.95V22.85C117.562 20.15 118.912 18.8 121.612 18.8H124.862C127.562 18.8 128.912 20.15 128.912 22.85V26.675H121.012V28.2C121.012 28.7333 121.279 29 121.812 29H128.412V30.875L126.912 32H121.612C118.912 32 117.562 30.65 117.562 27.95ZM121.012 24.025H125.462V22.6C125.462 22.0667 125.195 21.8 124.662 21.8H121.812C121.279 21.8 121.012 22.0667 121.012 22.6V24.025ZM135.963 27.95V14.75H139.413V18.8H143.713V21.8H139.413V28.2C139.413 28.7333 139.679 29 140.213 29H143.963V30.875L142.463 32H140.013C137.313 32 135.963 30.65 135.963 27.95ZM153.758 32C151.058 32 149.708 30.675 149.708 28.025C149.708 25.375 151.058 24.05 153.758 24.05H157.208V22.6C157.208 22.0667 156.942 21.8 156.408 21.8H151.108V19.925L152.608 18.8H156.608C159.308 18.8 160.658 20.15 160.658 22.85V32H153.758ZM153.158 28.2C153.158 28.7333 153.425 29 153.958 29H157.208V26.7H153.958C153.425 26.7 153.158 26.9667 153.158 27.5V28.2ZM167.829 16.625V13.25H171.429V16.625H167.829ZM167.904 32V18.8H171.354V32H167.904ZM178.609 27.2V13.5H182.059V27.55C182.059 28.5833 182.593 29.1583 183.659 29.275V32.25C180.293 32.25 178.609 30.5667 178.609 27.2ZM189.748 30.875V29H195.498C196.065 29 196.348 28.6833 196.348 28.05C196.348 27.4 196.115 27.0333 195.648 26.95L192.948 26.5C190.815 26.1333 189.748 24.9 189.748 22.8C189.748 20.1333 191.098 18.8 193.798 18.8H197.673L199.173 19.925V21.8H193.998C193.432 21.8 193.148 22.1167 193.148 22.75C193.148 23.4167 193.407 23.7917 193.923 23.875L196.598 24.325C198.715 24.675 199.773 25.8917 199.773 27.975C199.773 30.6583 198.415 32 195.698 32H191.248L189.748 30.875Z" fill="white"/>
<path d="M97.05 32H96.05V33H97.05V32ZM97.05 14.75V13.75H96.05V14.75H97.05ZM100.65 28.75H99.65V29.75H100.65V28.75ZM100.65 18V17H99.65V18H100.65ZM98.05 32V14.75H96.05V32H98.05ZM97.05 15.75H103.6V13.75H97.05V15.75ZM103.6 15.75C105.796 15.75 107.259 16.2983 108.18 17.2196C109.102 18.1409 109.65 19.6041 109.65 21.8H111.65C111.65 19.2959 111.023 17.2341 109.595 15.8054C108.166 14.3767 106.104 13.75 103.6 13.75V15.75ZM109.65 21.8V24.95H111.65V21.8H109.65ZM109.65 24.95C109.65 27.1459 109.102 28.6091 108.18 29.5304C107.259 30.4517 105.796 31 103.6 31V33C106.104 33 108.166 32.3733 109.595 30.9446C111.023 29.5159 111.65 27.4541 111.65 24.95H109.65ZM103.6 31H97.05V33H103.6V31ZM100.65 29.75H103.8V27.75H100.65V29.75ZM103.8 29.75C105.037 29.75 106.149 29.44 106.945 28.6446C107.74 27.8493 108.05 26.7375 108.05 25.5H106.05C106.05 26.4292 105.818 26.9424 105.53 27.2304C105.242 27.5184 104.729 27.75 103.8 27.75V29.75ZM108.05 25.5V21.25H106.05V25.5H108.05ZM108.05 21.25C108.05 20.0125 107.74 18.9007 106.945 18.1054C106.149 17.31 105.037 17 103.8 17V19C104.729 19 105.242 19.2316 105.53 19.5196C105.818 19.8076 106.05 20.3208 106.05 21.25H108.05ZM103.8 17H100.65V19H103.8V17ZM99.65 18V28.75H101.65V18H99.65ZM128.912 26.675V27.675H129.912V26.675H128.912ZM121.012 26.675V25.675H120.012V26.675H121.012ZM128.412 29H129.412V28H128.412V29ZM128.412 30.875L129.012 31.675L129.412 31.375V30.875H128.412ZM126.912 32V33H127.245L127.512 32.8L126.912 32ZM121.012 24.025H120.012V25.025H121.012V24.025ZM125.462 24.025V25.025H126.462V24.025H125.462ZM118.562 27.95V22.85H116.562V27.95H118.562ZM118.562 22.85C118.562 21.6541 118.86 20.9409 119.282 20.5196C119.703 20.0983 120.416 19.8 121.612 19.8V17.8C120.108 17.8 118.796 18.1767 117.867 19.1054C116.939 20.0341 116.562 21.3459 116.562 22.85H118.562ZM121.612 19.8H124.862V17.8H121.612V19.8ZM124.862 19.8C126.058 19.8 126.771 20.0983 127.192 20.5196C127.614 20.9409 127.912 21.6541 127.912 22.85H129.912C129.912 21.3459 129.535 20.0341 128.607 19.1054C127.678 18.1767 126.366 17.8 124.862 17.8V19.8ZM127.912 22.85V26.675H129.912V22.85H127.912ZM128.912 25.675H121.012V27.675H128.912V25.675ZM120.012 26.675V28.2H122.012V26.675H120.012ZM120.012 28.2C120.012 28.6208 120.118 29.1201 120.505 29.5071C120.892 29.8941 121.391 30 121.812 30V28C121.699 28 121.799 27.9725 121.919 28.0929C122.039 28.2132 122.012 28.3125 122.012 28.2H120.012ZM121.812 30H128.412V28H121.812V30ZM127.412 29V30.875H129.412V29H127.412ZM127.812 30.075L126.312 31.2L127.512 32.8L129.012 31.675L127.812 30.075ZM126.912 31H121.612V33H126.912V31ZM121.612 31C120.416 31 119.703 30.7017 119.282 30.2804C118.86 29.8591 118.562 29.1459 118.562 27.95H116.562C116.562 29.4541 116.939 30.7659 117.867 31.6946C118.796 32.6233 120.108 33 121.612 33V31ZM121.012 25.025H125.462V23.025H121.012V25.025ZM126.462 24.025V22.6H124.462V24.025H126.462ZM126.462 22.6C126.462 22.1792 126.356 21.6799 125.969 21.2929C125.582 20.9059 125.083 20.8 124.662 20.8V22.8C124.774 22.8 124.675 22.8275 124.555 22.7071C124.434 22.5868 124.462 22.4875 124.462 22.6H126.462ZM124.662 20.8H121.812V22.8H124.662V20.8ZM121.812 20.8C121.391 20.8 120.892 20.9059 120.505 21.2929C120.118 21.6799 120.012 22.1792 120.012 22.6H122.012C122.012 22.4875 122.039 22.5868 121.919 22.7071C121.799 22.8275 121.699 22.8 121.812 22.8V20.8ZM120.012 22.6V24.025H122.012V22.6H120.012ZM135.963 14.75V13.75H134.963V14.75H135.963ZM139.413 14.75H140.413V13.75H139.413V14.75ZM139.413 18.8H138.413V19.8H139.413V18.8ZM143.713 18.8H144.713V17.8H143.713V18.8ZM143.713 21.8V22.8H144.713V21.8H143.713ZM139.413 21.8V20.8H138.413V21.8H139.413ZM143.963 29H144.963V28H143.963V29ZM143.963 30.875L144.563 31.675L144.963 31.375V30.875H143.963ZM142.463 32V33H142.796L143.063 32.8L142.463 32ZM136.963 27.95V14.75H134.963V27.95H136.963ZM135.963 15.75H139.413V13.75H135.963V15.75ZM138.413 14.75V18.8H140.413V14.75H138.413ZM139.413 19.8H143.713V17.8H139.413V19.8ZM142.713 18.8V21.8H144.713V18.8H142.713ZM143.713 20.8H139.413V22.8H143.713V20.8ZM138.413 21.8V28.2H140.413V21.8H138.413ZM138.413 28.2C138.413 28.6208 138.519 29.1201 138.906 29.5071C139.293 29.8941 139.792 30 140.213 30V28C140.1 28 140.199 27.9725 140.32 28.0929C140.44 28.2132 140.413 28.3125 140.413 28.2H138.413ZM140.213 30H143.963V28H140.213V30ZM142.963 29V30.875H144.963V29H142.963ZM143.363 30.075L141.863 31.2L143.063 32.8L144.563 31.675L143.363 30.075ZM142.463 31H140.013V33H142.463V31ZM140.013 31C138.817 31 138.104 30.7017 137.682 30.2804C137.261 29.8591 136.963 29.1459 136.963 27.95H134.963C134.963 29.4541 135.339 30.7659 136.268 31.6946C137.197 32.6233 138.509 33 140.013 33V31ZM157.208 24.05V25.05H158.208V24.05H157.208ZM151.108 21.8H150.108V22.8H151.108V21.8ZM151.108 19.925L150.508 19.125L150.108 19.425V19.925H151.108ZM152.608 18.8V17.8H152.275L152.008 18L152.608 18.8ZM160.658 32V33H161.658V32H160.658ZM157.208 29V30H158.208V29H157.208ZM157.208 26.7H158.208V25.7H157.208V26.7ZM153.758 31C152.558 31 151.842 30.7055 151.421 30.2926C151.004 29.883 150.708 29.1911 150.708 28.025H148.708C148.708 29.5089 149.088 30.8045 150.02 31.7199C150.95 32.632 152.259 33 153.758 33V31ZM150.708 28.025C150.708 26.8589 151.004 26.167 151.421 25.7574C151.842 25.3445 152.558 25.05 153.758 25.05V23.05C152.259 23.05 150.95 23.418 150.02 24.3301C149.088 25.2455 148.708 26.5411 148.708 28.025H150.708ZM153.758 25.05H157.208V23.05H153.758V25.05ZM158.208 24.05V22.6H156.208V24.05H158.208ZM158.208 22.6C158.208 22.1792 158.103 21.6799 157.716 21.2929C157.328 20.9059 156.829 20.8 156.408 20.8V22.8C156.521 22.8 156.422 22.8275 156.301 22.7071C156.181 22.5868 156.208 22.4875 156.208 22.6H158.208ZM156.408 20.8H151.108V22.8H156.408V20.8ZM152.108 21.8V19.925H150.108V21.8H152.108ZM151.708 20.725L153.208 19.6L152.008 18L150.508 19.125L151.708 20.725ZM152.608 19.8H156.608V17.8H152.608V19.8ZM156.608 19.8C157.804 19.8 158.517 20.0983 158.939 20.5196C159.36 20.9409 159.658 21.6541 159.658 22.85H161.658C161.658 21.3459 161.282 20.0341 160.353 19.1054C159.424 18.1767 158.113 17.8 156.608 17.8V19.8ZM159.658 22.85V32H161.658V22.85H159.658ZM160.658 31H153.758V33H160.658V31ZM152.158 28.2C152.158 28.6208 152.264 29.1201 152.651 29.5071C153.038 29.8941 153.538 30 153.958 30V28C153.846 28 153.945 27.9725 154.066 28.0929C154.186 28.2132 154.158 28.3125 154.158 28.2H152.158ZM153.958 30H157.208V28H153.958V30ZM158.208 29V26.7H156.208V29H158.208ZM157.208 25.7H153.958V27.7H157.208V25.7ZM153.958 25.7C153.538 25.7 153.038 25.8059 152.651 26.1929C152.264 26.5799 152.158 27.0792 152.158 27.5H154.158C154.158 27.3875 154.186 27.4868 154.066 27.6071C153.945 27.7275 153.846 27.7 153.958 27.7V25.7ZM152.158 27.5V28.2H154.158V27.5H152.158ZM167.829 16.625H166.829V17.625H167.829V16.625ZM167.829 13.25V12.25H166.829V13.25H167.829ZM171.429 13.25H172.429V12.25H171.429V13.25ZM171.429 16.625V17.625H172.429V16.625H171.429ZM167.904 32H166.904V33H167.904V32ZM167.904 18.8V17.8H166.904V18.8H167.904ZM171.354 18.8H172.354V17.8H171.354V18.8ZM171.354 32V33H172.354V32H171.354ZM168.829 16.625V13.25H166.829V16.625H168.829ZM167.829 14.25H171.429V12.25H167.829V14.25ZM170.429 13.25V16.625H172.429V13.25H170.429ZM171.429 15.625H167.829V17.625H171.429V15.625ZM168.904 32V18.8H166.904V32H168.904ZM167.904 19.8H171.354V17.8H167.904V19.8ZM170.354 18.8V32H172.354V18.8H170.354ZM171.354 31H167.904V33H171.354V31ZM178.609 13.5V12.5H177.609V13.5H178.609ZM182.059 13.5H183.059V12.5H182.059V13.5ZM183.659 29.275H184.659V28.3784L183.768 28.2809L183.659 29.275ZM183.659 32.25V33.25H184.659V32.25H183.659ZM179.609 27.2V13.5H177.609V27.2H179.609ZM178.609 14.5H182.059V12.5H178.609V14.5ZM181.059 13.5V27.55H183.059V13.5H181.059ZM181.059 27.55C181.059 28.2367 181.239 28.9114 181.726 29.4363C182.208 29.9559 182.866 30.1942 183.55 30.2691L183.768 28.2809C183.385 28.2391 183.244 28.1316 183.192 28.0762C183.146 28.0261 183.059 27.8966 183.059 27.55H181.059ZM182.659 29.275V32.25H184.659V29.275H182.659ZM183.659 31.25C182.13 31.25 181.167 30.8684 180.579 30.2804C179.991 29.6924 179.609 28.7292 179.609 27.2H177.609C177.609 29.0375 178.069 30.5993 179.165 31.6946C180.26 32.79 181.822 33.25 183.659 33.25V31.25ZM189.748 30.875H188.748V31.375L189.148 31.675L189.748 30.875ZM189.748 29V28H188.748V29H189.748ZM195.648 26.95L195.824 25.9655L195.813 25.9636L195.648 26.95ZM192.948 26.5L192.779 27.4856L192.784 27.4864L192.948 26.5ZM197.673 18.8L198.273 18L198.007 17.8H197.673V18.8ZM199.173 19.925H200.173V19.425L199.773 19.125L199.173 19.925ZM199.173 21.8V22.8H200.173V21.8H199.173ZM193.923 23.875L194.089 22.8888L194.083 22.8878L193.923 23.875ZM196.598 24.325L196.433 25.3111L196.435 25.3116L196.598 24.325ZM191.248 32L190.648 32.8L190.915 33H191.248V32ZM190.748 30.875V29H188.748V30.875H190.748ZM189.748 30H195.498V28H189.748V30ZM195.498 30C195.966 30 196.492 29.8641 196.881 29.4293C197.251 29.0156 197.348 28.4951 197.348 28.05H195.348C195.348 28.137 195.338 28.1754 195.337 28.1798C195.337 28.1808 195.348 28.1431 195.391 28.0957C195.411 28.0728 195.435 28.0525 195.459 28.0359C195.484 28.0194 195.506 28.0093 195.521 28.0035C195.551 27.9926 195.549 28 195.498 28V30ZM197.348 28.05C197.348 27.6229 197.275 27.1553 197.017 26.7506C196.736 26.3084 196.305 26.0514 195.824 25.9656L195.473 27.9344C195.477 27.9353 195.452 27.9312 195.414 27.9068C195.374 27.8813 195.346 27.8493 195.33 27.8244C195.316 27.8028 195.321 27.8017 195.33 27.8393C195.339 27.8777 195.348 27.9452 195.348 28.05H197.348ZM195.813 25.9636L193.113 25.5136L192.784 27.4864L195.484 27.9364L195.813 25.9636ZM193.118 25.5145C192.204 25.3574 191.643 25.0374 191.305 24.6458C190.969 24.2581 190.748 23.6806 190.748 22.8H188.748C188.748 24.0194 189.061 25.1086 189.792 25.9542C190.52 26.796 191.559 27.2759 192.779 27.4855L193.118 25.5145ZM190.748 22.8C190.748 21.624 191.045 20.9249 191.464 20.5115C191.885 20.0958 192.599 19.8 193.798 19.8V17.8C192.297 17.8 190.987 18.1709 190.058 19.0885C189.127 20.0084 188.748 21.3094 188.748 22.8H190.748ZM193.798 19.8H197.673V17.8H193.798V19.8ZM197.073 19.6L198.573 20.725L199.773 19.125L198.273 18L197.073 19.6ZM198.173 19.925V21.8H200.173V19.925H198.173ZM199.173 20.8H193.998V22.8H199.173V20.8ZM193.998 20.8C193.53 20.8 193.005 20.9359 192.616 21.3707C192.246 21.7844 192.148 22.3049 192.148 22.75H194.148C194.148 22.663 194.159 22.6246 194.16 22.6202C194.16 22.6192 194.149 22.6569 194.106 22.7043C194.086 22.7272 194.062 22.7475 194.037 22.7641C194.013 22.7806 193.991 22.7907 193.976 22.7965C193.946 22.8074 193.947 22.8 193.998 22.8V20.8ZM192.148 22.75C192.148 23.1966 192.233 23.6833 192.519 24.0986C192.826 24.545 193.28 24.7842 193.764 24.8622L194.083 22.8878C194.057 22.8837 194.067 22.8812 194.093 22.8971C194.123 22.9145 194.149 22.9396 194.166 22.9639C194.18 22.9853 194.176 22.9884 194.167 22.9546C194.159 22.9194 194.148 22.8542 194.148 22.75H192.148ZM193.758 24.8611L196.433 25.3111L196.764 23.3389L194.089 22.8889L193.758 24.8611ZM196.435 25.3116C197.34 25.4613 197.893 25.7741 198.225 26.1563C198.554 26.5348 198.773 27.1025 198.773 27.975H200.773C200.773 26.7642 200.463 25.6819 199.734 24.8437C199.008 24.0092 197.973 23.5387 196.762 23.3384L196.435 25.3116ZM198.773 27.975C198.773 29.1594 198.475 29.8647 198.052 30.2823C197.627 30.7022 196.906 31 195.698 31V33C197.208 33 198.524 32.627 199.457 31.7052C200.393 30.7812 200.773 29.474 200.773 27.975H198.773ZM195.698 31H191.248V33H195.698V31ZM191.848 31.2L190.348 30.075L189.148 31.675L190.648 32.8L191.848 31.2Z" fill="black" mask="url(#path-3-outside-1_15_3951)"/>
</svg>
