<svg width="157" height="60" viewBox="0 0 157 60" fill="none" xmlns="http://www.w3.org/2000/svg">
<path d="M42.3133 15.5528C41.6579 15.2364 40.8489 15.2516 40.001 15.5368C40.3439 15.5516 40.6678 15.6253 40.96 15.7664C42.72 16.6157 42.7117 19.5318 40.94 22.279C40.6147 22.7837 40.2889 23.288 39.964 23.7927C39.3461 24.7507 38.4091 25.7832 37.9835 26.8095C37.8807 27.0568 37.589 27.968 37.6479 28.1884C37.8709 29.0271 39.7941 25.9416 39.9275 25.7348C40.7164 24.5118 41.5054 23.2884 42.2933 22.0654C44.0645 19.3178 44.0733 16.4017 42.3133 15.5528Z" fill="#284A36"/>
<path d="M27.6593 36.2046C26.2397 35.8005 25.1162 35.1193 24.5216 34.3981C21.5509 39.9354 20.2175 44.1849 21.4686 44.7886C22.7645 45.4138 26.4501 41.9382 30.5004 36.5268C29.6623 36.5925 28.6717 36.4923 27.6593 36.2046Z" fill="#284A36"/>
<path d="M40.5479 15.1985C38.88 14.3939 36.0033 16.1081 34.122 19.0263L26.7456 30.4675L26.7714 30.4797C26.017 31.7149 25.3294 32.9134 24.7046 34.064C25.4828 34.6445 26.598 35.1816 27.907 35.5541C28.9624 35.8545 29.9885 36.0028 30.8845 36.0146C31.504 35.1728 32.1302 34.2889 32.7566 33.368L32.7819 33.3802L40.1593 21.939C42.041 19.0208 42.2144 16.0032 40.5479 15.1985Z" fill="#284A36"/>
<path d="M123.219 47C122.098 47 121.111 46.9426 120.239 46.8283C117.338 46.4464 116.666 45.574 116.016 44.7288C115.433 43.9678 114.882 43.249 112.906 42.9875C109.952 42.5971 103.951 42.846 100.362 42.9965L99.9727 43.0126C96.7209 43.1482 93.243 43.4243 89.5597 43.7174C84.6166 44.1097 79.5093 44.5163 74.83 44.5651L72.9273 44.5848L73.0773 44.1002C73.1619 43.8257 73.654 43.539 74.178 43.2339C75.2516 42.6097 75.5961 42.3035 74.8103 42.1453C73.1659 41.8129 68.1889 41.9439 60.029 42.5342L59.2235 42.5926C58.5125 42.6429 57.4865 42.7246 56.2358 42.8243C45.2302 43.7007 33.0744 44.5621 28.0857 43.6781C26.7346 43.4378 25.9684 43.0822 25.87 42.648C25.8168 42.4102 26.5278 42.2063 27.4594 42.1927C28.3988 42.1911 29.1866 42.3604 29.2418 42.5991C29.2792 42.7694 29.5076 42.8802 30.0099 42.9683C34.0651 43.6871 49.443 42.4611 55.2335 41.9997C56.5295 41.8964 57.5909 41.8119 58.3255 41.7595L59.1093 41.7035C66.359 41.1786 73.532 40.7888 76.9039 41.4668C79.8719 42.0662 78.3062 42.9779 77.272 43.5808C77.2346 43.6021 77.2031 43.6222 77.1657 43.6423C80.7797 43.5108 84.7209 43.197 88.5574 42.8918C92.1911 42.6037 95.9469 42.3045 99.433 42.1599L99.8211 42.1438C104.083 41.966 110.523 41.6985 114.458 42.2203C117.88 42.6727 118.653 43.6771 119.333 44.5626C119.849 45.234 120.337 45.8692 121.785 46.0601C123.055 46.2269 125.413 46.1145 128.611 45.7412C129.46 45.6416 130.459 45.7362 130.847 45.9543C131.235 46.1725 130.861 46.4273 130.014 46.5265C127.296 46.8439 125.068 47 123.219 47Z" fill="#284A36"/>
<path d="M44.652 29.46C45.408 29.46 46.008 29.622 46.452 29.946C46.908 30.27 47.136 30.792 47.136 31.512C47.136 32.196 46.932 32.778 46.524 33.258C46.116 33.738 45.564 34.104 44.868 34.356C44.184 34.608 43.422 34.734 42.582 34.734C42.246 34.734 41.922 34.722 41.61 34.698C41.574 35.094 41.556 35.454 41.556 35.778C41.556 36.474 41.682 36.996 41.934 37.344C42.186 37.692 42.618 37.866 43.23 37.866C43.746 37.866 44.208 37.746 44.616 37.506C45.024 37.254 45.342 36.9 45.57 36.444C45.714 36.48 45.822 36.564 45.894 36.696C45.966 36.828 46.002 36.984 46.002 37.164C46.002 37.524 45.858 37.872 45.57 38.208C45.282 38.544 44.88 38.82 44.364 39.036C43.848 39.252 43.26 39.36 42.6 39.36C41.556 39.36 40.776 39.072 40.26 38.496C39.744 37.908 39.486 37.008 39.486 35.796C39.486 34.728 39.678 33.714 40.062 32.754C40.458 31.782 41.04 30.99 41.808 30.378C42.588 29.766 43.536 29.46 44.652 29.46ZM44.238 30.486C43.614 30.486 43.08 30.834 42.636 31.53C42.192 32.214 41.892 32.976 41.736 33.816C42.66 33.816 43.464 33.624 44.148 33.24C44.832 32.856 45.174 32.286 45.174 31.53C45.174 31.182 45.09 30.924 44.922 30.756C44.766 30.576 44.538 30.486 44.238 30.486ZM57.2426 37.128C57.1826 37.488 57.1526 37.74 57.1526 37.884C57.1526 38.268 57.3326 38.478 57.6926 38.514C57.6206 38.79 57.4586 39 57.2066 39.144C56.9666 39.288 56.6906 39.36 56.3786 39.36C56.0426 39.36 55.7606 39.27 55.5326 39.09C55.3166 38.91 55.1906 38.658 55.1546 38.334C54.9146 38.682 54.5726 38.94 54.1286 39.108C53.6846 39.276 53.2106 39.36 52.7066 39.36C51.7826 39.36 51.1106 39.078 50.6906 38.514C50.2826 37.938 50.0786 37.098 50.0786 35.994C50.0786 34.914 50.2586 33.876 50.6186 32.88C50.9786 31.884 51.5306 31.068 52.2746 30.432C53.0306 29.784 53.9606 29.46 55.0646 29.46C55.3886 29.46 55.6826 29.49 55.9466 29.55C56.2226 29.61 56.5346 29.706 56.8826 29.838L58.6826 29.604L57.2426 37.128ZM56.3966 31.098C56.1806 30.918 55.9286 30.78 55.6406 30.684C55.3646 30.588 55.1006 30.54 54.8486 30.54C54.2246 30.54 53.7386 30.81 53.3906 31.35C53.0426 31.89 52.7666 32.586 52.5626 33.438C52.4426 33.906 52.3406 34.422 52.2566 34.986C52.1846 35.538 52.1486 36.006 52.1486 36.39C52.1486 36.966 52.2506 37.428 52.4546 37.776C52.6586 38.112 52.9826 38.28 53.4266 38.28C54.0386 38.28 54.5186 37.998 54.8666 37.434C55.2146 36.858 55.4606 36.174 55.6046 35.382L56.3966 31.098ZM65.5279 31.224C65.7679 30.696 66.1159 30.27 66.5719 29.946C67.0399 29.622 67.5499 29.46 68.1019 29.46C68.6539 29.46 69.0739 29.628 69.3619 29.964C69.6499 30.3 69.7939 30.732 69.7939 31.26C69.7939 31.86 69.6259 32.376 69.2899 32.808C68.9659 33.228 68.5459 33.438 68.0299 33.438C67.6459 33.438 67.3819 33.33 67.2379 33.114C67.3819 32.91 67.5019 32.664 67.5979 32.376C67.7059 32.088 67.7599 31.824 67.7599 31.584C67.7599 31.092 67.5439 30.846 67.1119 30.846C66.2479 30.846 65.6239 31.896 65.2399 33.996L64.3579 39L62.2699 39.216L64.0699 29.82L65.7619 29.604L65.5279 31.224ZM75.8577 31.224C76.1697 30.624 76.5957 30.18 77.1357 29.892C77.6757 29.604 78.2757 29.46 78.9357 29.46C79.6917 29.46 80.2437 29.658 80.5917 30.054C80.9517 30.438 81.1317 31.008 81.1317 31.764C81.1317 32.244 81.0777 32.766 80.9697 33.33C80.8617 33.882 80.6937 34.608 80.4657 35.508C80.3457 35.976 80.2377 36.426 80.1417 36.858C80.0577 37.278 80.0157 37.602 80.0157 37.83C80.0157 38.034 80.0517 38.196 80.1237 38.316C80.2077 38.424 80.3517 38.49 80.5557 38.514C80.4837 38.79 80.3217 39 80.0697 39.144C79.8297 39.288 79.5477 39.36 79.2237 39.36C78.4197 39.36 78.0177 38.91 78.0177 38.01C78.0177 37.65 78.0657 37.218 78.1617 36.714C78.2697 36.21 78.4197 35.556 78.6117 34.752C78.7917 34.044 78.9237 33.486 79.0077 33.078C79.0917 32.67 79.1337 32.334 79.1337 32.07C79.1337 31.674 79.0317 31.374 78.8277 31.17C78.6237 30.954 78.3417 30.846 77.9817 30.846C77.3457 30.846 76.8237 31.158 76.4157 31.782C76.0197 32.394 75.7377 33.132 75.5697 33.996L74.5977 39L72.5637 39.216L74.3997 29.82L76.0917 29.604L75.8577 31.224ZM86.2804 39.198C86.1964 35.646 86.0404 33.12 85.8124 31.62C85.7404 31.116 85.6504 30.744 85.5424 30.504C85.4464 30.264 85.2904 30.078 85.0744 29.946C85.3264 29.622 85.7344 29.46 86.2984 29.46C86.8624 29.46 87.2584 29.628 87.4864 29.964C87.7144 30.288 87.8644 30.84 87.9364 31.62C88.0084 32.412 88.0444 33.75 88.0444 35.634C88.0444 36.486 88.0384 37.176 88.0264 37.704C88.7704 36.732 89.4124 35.622 89.9524 34.374C90.4924 33.126 90.7624 31.998 90.7624 30.99C90.7624 30.63 90.7204 30.282 90.6364 29.946C90.7924 29.802 90.9904 29.688 91.2304 29.604C91.4824 29.508 91.7344 29.46 91.9864 29.46C92.3584 29.46 92.6164 29.556 92.7604 29.748C92.9164 29.94 92.9944 30.234 92.9944 30.63C92.9944 31.386 92.7844 32.268 92.3644 33.276C91.9444 34.272 91.4344 35.178 90.8344 35.994C90.5104 36.45 90.0964 36.954 89.5924 37.506C89.0884 38.058 88.5784 38.556 88.0624 39L86.2804 39.198ZM99.2246 25.968C99.6206 25.968 99.9386 26.064 100.179 26.256C100.419 26.448 100.539 26.724 100.539 27.084C100.539 27.456 100.407 27.744 100.143 27.948C99.8906 28.14 99.5666 28.236 99.1706 28.236C98.7746 28.236 98.4566 28.14 98.2166 27.948C97.9766 27.756 97.8566 27.48 97.8566 27.12C97.8566 26.748 97.9826 26.466 98.2346 26.274C98.4986 26.07 98.8286 25.968 99.2246 25.968ZM98.2346 37.128C98.1746 37.452 98.1446 37.704 98.1446 37.884C98.1446 38.268 98.3246 38.478 98.6846 38.514C98.6126 38.79 98.4506 39 98.1986 39.144C97.9586 39.288 97.6766 39.36 97.3526 39.36C96.9806 39.36 96.6866 39.252 96.4706 39.036C96.2546 38.82 96.1466 38.526 96.1466 38.154C96.1466 37.806 96.2606 37.044 96.4886 35.868L97.7126 29.82L99.7466 29.604L98.2346 37.128ZM107.482 37.056C107.482 36.66 107.35 36.318 107.086 36.03C106.834 35.742 106.438 35.412 105.898 35.04C105.262 34.608 104.77 34.194 104.422 33.798C104.074 33.402 103.9 32.904 103.9 32.304C103.9 31.728 104.08 31.224 104.44 30.792C104.8 30.36 105.274 30.03 105.862 29.802C106.462 29.574 107.092 29.46 107.752 29.46C108.472 29.46 109.078 29.598 109.57 29.874C110.062 30.138 110.308 30.57 110.308 31.17C110.308 31.626 110.158 31.986 109.858 32.25C109.558 32.514 109.186 32.646 108.742 32.646C108.406 32.646 108.166 32.58 108.022 32.448C108.19 32.028 108.274 31.674 108.274 31.386C108.274 30.714 107.932 30.378 107.248 30.378C106.828 30.378 106.492 30.498 106.24 30.738C106 30.966 105.88 31.278 105.88 31.674C105.88 32.082 106.006 32.43 106.258 32.718C106.522 32.994 106.918 33.318 107.446 33.69C107.878 33.99 108.226 34.26 108.49 34.5C108.766 34.728 108.994 35.004 109.174 35.328C109.366 35.652 109.462 36.024 109.462 36.444C109.462 37.032 109.282 37.548 108.922 37.992C108.562 38.436 108.082 38.778 107.482 39.018C106.894 39.27 106.27 39.396 105.61 39.396C104.83 39.396 104.146 39.234 103.558 38.91C102.97 38.586 102.676 38.13 102.676 37.542C102.676 37.086 102.844 36.75 103.18 36.534C103.528 36.306 103.918 36.192 104.35 36.192C104.686 36.192 104.944 36.264 105.124 36.408C104.956 36.768 104.872 37.122 104.872 37.47C104.872 38.142 105.226 38.478 105.934 38.478C106.378 38.478 106.744 38.346 107.032 38.082C107.332 37.818 107.482 37.476 107.482 37.056ZM117.634 29.82H119.038L118.876 30.63H117.454L116.158 37.128C116.098 37.452 116.068 37.704 116.068 37.884C116.068 38.268 116.248 38.478 116.608 38.514C116.536 38.79 116.374 39 116.122 39.144C115.87 39.288 115.588 39.36 115.276 39.36C114.892 39.36 114.592 39.252 114.376 39.036C114.172 38.82 114.07 38.514 114.07 38.118C114.07 37.578 114.304 36.228 114.772 34.068L114.952 33.204L115.456 30.63H114.178L114.25 30.09C114.838 29.874 115.408 29.586 115.96 29.226C116.512 28.866 116.998 28.47 117.418 28.038H117.994L117.634 29.82ZM128.719 37.128C128.659 37.488 128.629 37.74 128.629 37.884C128.629 38.268 128.809 38.478 129.169 38.514C129.097 38.79 128.935 39 128.683 39.144C128.443 39.288 128.167 39.36 127.855 39.36C127.519 39.36 127.237 39.27 127.009 39.09C126.793 38.91 126.667 38.658 126.631 38.334C126.391 38.682 126.049 38.94 125.605 39.108C125.161 39.276 124.687 39.36 124.183 39.36C123.259 39.36 122.587 39.078 122.167 38.514C121.759 37.938 121.555 37.098 121.555 35.994C121.555 34.914 121.735 33.876 122.095 32.88C122.455 31.884 123.007 31.068 123.751 30.432C124.507 29.784 125.437 29.46 126.541 29.46C126.865 29.46 127.159 29.49 127.423 29.55C127.699 29.61 128.011 29.706 128.359 29.838L130.159 29.604L128.719 37.128ZM127.873 31.098C127.657 30.918 127.405 30.78 127.117 30.684C126.841 30.588 126.577 30.54 126.325 30.54C125.701 30.54 125.215 30.81 124.867 31.35C124.519 31.89 124.243 32.586 124.039 33.438C123.919 33.906 123.817 34.422 123.733 34.986C123.661 35.538 123.625 36.006 123.625 36.39C123.625 36.966 123.727 37.428 123.931 37.776C124.135 38.112 124.459 38.28 124.903 38.28C125.515 38.28 125.995 37.998 126.343 37.434C126.691 36.858 126.937 36.174 127.081 35.382L127.873 31.098Z" fill="#031F34"/>
</svg>
