<svg width="22" height="21" viewBox="0 0 22 21" fill="none" xmlns="http://www.w3.org/2000/svg">
<path fill-rule="evenodd" clip-rule="evenodd" d="M11.1667 18.8035C13.3471 18.8035 15.4382 17.9373 16.9799 16.3956C18.5217 14.8538 19.3878 12.7627 19.3878 10.5823C19.3878 8.40196 18.5217 6.31088 16.9799 4.76912C15.4382 3.22736 13.3471 2.36121 11.1667 2.36121C8.98631 2.36121 6.89524 3.22736 5.35347 4.76912C3.81171 6.31088 2.94556 8.40196 2.94556 10.5823C2.94556 12.7627 3.81171 14.8538 5.35347 16.3956C6.89524 17.9373 8.98631 18.8035 11.1667 18.8035ZM10.7094 7.67206C10.5546 7.56881 10.3747 7.5095 10.1889 7.50047C10.0031 7.49145 9.81829 7.53304 9.65425 7.62081C9.4902 7.70858 9.35307 7.83924 9.25746 7.99884C9.16186 8.15845 9.11138 8.34101 9.11141 8.52706V12.6376C9.11138 12.8237 9.16186 13.0062 9.25746 13.1658C9.35307 13.3255 9.4902 13.4561 9.65425 13.5439C9.81829 13.6316 10.0031 13.6732 10.1889 13.6642C10.3747 13.6552 10.5546 13.5959 10.7094 13.4926L13.7923 11.4373C13.9331 11.3435 14.0485 11.2164 14.1283 11.0672C14.2081 10.9181 14.2499 10.7515 14.2499 10.5823C14.2499 10.4132 14.2081 10.2466 14.1283 10.0975C14.0485 9.94833 13.9331 9.82119 13.7923 9.72735L10.7094 7.67206Z" fill="black"/>
</svg>
