<svg width="192" height="181" viewBox="0 0 192 181" fill="none" xmlns="http://www.w3.org/2000/svg">
<path d="M192 90.5C192 92.4974 191.157 94.413 189.657 95.8254C188.157 97.2378 186.122 98.0312 184 98.0312H104V173.344C104 175.341 103.157 177.257 101.657 178.669C100.157 180.082 98.1217 180.875 96 180.875C93.8783 180.875 91.8434 180.082 90.3431 178.669C88.8429 177.257 88 175.341 88 173.344V98.0312H8C5.87827 98.0312 3.84344 97.2378 2.34315 95.8254C0.842856 94.413 0 92.4974 0 90.5C0 88.5026 0.842856 86.587 2.34315 85.1746C3.84344 83.7622 5.87827 82.9688 8 82.9688H88V7.65625C88 5.65884 88.8429 3.74324 90.3431 2.33085C91.8434 0.91847 93.8783 0.125 96 0.125C98.1217 0.125 100.157 0.91847 101.657 2.33085C103.157 3.74324 104 5.65884 104 7.65625V82.9688H184C186.122 82.9688 188.157 83.7622 189.657 85.1746C191.157 86.587 192 88.5026 192 90.5Z" fill="black" fill-opacity="0.05"/>
</svg>
