<svg width="272" height="58" viewBox="0 0 272 58" fill="none" xmlns="http://www.w3.org/2000/svg">
<path d="M12.05 33V15.75H20.2C23 15.75 24.4 17.15 24.4 19.95V21.45C24.4 22.0167 24.2333 22.5 23.9 22.9L23.025 23.95L24.075 24.825C24.625 25.275 24.9 25.9417 24.9 26.825V28.8C24.9 31.6 23.5 33 20.7 33H12.05ZM15.65 29.75H20.55C21.05 29.75 21.3 29.5 21.3 29V26.5C21.3 26 21.05 25.75 20.55 25.75H15.65V29.75ZM15.65 22.5H20.05C20.55 22.5 20.8 22.25 20.8 21.75V19.75C20.8 19.25 20.55 19 20.05 19H15.65V22.5ZM31.8586 28.8V19.95C31.8586 17.15 33.2586 15.75 36.0586 15.75H41.7586C44.5586 15.75 45.9586 17.15 45.9586 19.95V28.8C45.9586 31.6 44.5586 33 41.7586 33H36.0586C33.2586 33 31.8586 31.6 31.8586 28.8ZM35.4586 29C35.4586 29.5 35.7086 29.75 36.2086 29.75H41.6086C42.1086 29.75 42.3586 29.5 42.3586 29V19.75C42.3586 19.25 42.1086 19 41.6086 19H36.2086C35.7086 19 35.4586 19.25 35.4586 19.75V29ZM53.3088 28.8V19.95C53.3088 17.15 54.7088 15.75 57.5088 15.75H63.2088C66.0088 15.75 67.4088 17.15 67.4088 19.95V28.8C67.4088 31.6 66.0088 33 63.2088 33H57.5088C54.7088 33 53.3088 31.6 53.3088 28.8ZM56.9088 29C56.9088 29.5 57.1588 29.75 57.6588 29.75H63.0588C63.5588 29.75 63.8088 29.5 63.8088 29V19.75C63.8088 19.25 63.5588 19 63.0588 19H57.6588C57.1588 19 56.9088 19.25 56.9088 19.75V29ZM75.009 33V15.75H78.609V22.575L84.709 15.75H88.084L88.434 16.475L82.709 22.85L89.059 32.275L88.734 33H85.409L80.384 25.45L78.609 27.375V33H75.009Z" fill="black"/>
<path d="M153 54.1435C170.839 47.7672 217.438 37.3842 261.125 46.8628" stroke="#37ED81" stroke-width="3"/>
<mask id="path-3-outside-1_15_3951" maskUnits="userSpaceOnUse" x="96" y="13" width="153" height="20" fill="black">
<rect fill="white" x="96" y="13" width="153" height="20"/>
<path d="M97.05 32V14.75H105.45C108.25 14.75 109.65 16.15 109.65 18.95V21.8C109.65 23.8833 108.875 25.1833 107.325 25.7L110.15 31.25L109.725 32H106.625L103.575 26H100.65V32H97.05ZM100.65 22.75H105.3C105.8 22.75 106.05 22.5 106.05 22V18.75C106.05 18.25 105.8 18 105.3 18H100.65V22.75ZM116.561 27.95V22.85C116.561 20.15 117.911 18.8 120.611 18.8H123.861C126.561 18.8 127.911 20.15 127.911 22.85V26.675H120.011V28.2C120.011 28.7333 120.278 29 120.811 29H127.411V30.875L125.911 32H120.611C117.911 32 116.561 30.65 116.561 27.95ZM120.011 24.025H124.461V22.6C124.461 22.0667 124.194 21.8 123.661 21.8H120.811C120.278 21.8 120.011 22.0667 120.011 22.6V24.025ZM134.612 30.875V29H140.362C140.928 29 141.212 28.6833 141.212 28.05C141.212 27.4 140.978 27.0333 140.512 26.95L137.812 26.5C135.678 26.1333 134.612 24.9 134.612 22.8C134.612 20.1333 135.962 18.8 138.662 18.8H142.537L144.037 19.925V21.8H138.862C138.295 21.8 138.012 22.1167 138.012 22.75C138.012 23.4167 138.27 23.7917 138.787 23.875L141.462 24.325C143.578 24.675 144.637 25.8917 144.637 27.975C144.637 30.6583 143.278 32 140.562 32H136.112L134.612 30.875ZM151.307 27.95V22.85C151.307 20.15 152.657 18.8 155.357 18.8H158.857C161.557 18.8 162.907 20.15 162.907 22.85V27.95C162.907 30.65 161.557 32 158.857 32H155.357C152.657 32 151.307 30.65 151.307 27.95ZM154.757 28.2C154.757 28.7333 155.024 29 155.557 29H158.657C159.19 29 159.457 28.7333 159.457 28.2V22.6C159.457 22.0667 159.19 21.8 158.657 21.8H155.557C155.024 21.8 154.757 22.0667 154.757 22.6V28.2ZM169.952 27.95V18.8H173.402V28.2C173.402 28.7333 173.669 29 174.202 29H177.852V18.8H181.302V32H174.002C171.302 32 169.952 30.65 169.952 27.95ZM188.546 32V20.5C189.162 19.3667 190.346 18.8 192.096 18.8H194.796L196.296 19.925V21.8H193.021C192.521 21.8 192.179 21.925 191.996 22.175V32H188.546ZM202.303 27.95V22.85C202.303 20.15 203.653 18.8 206.353 18.8H211.003L212.503 19.925V21.8H206.553C206.02 21.8 205.753 22.0667 205.753 22.6V28.2C205.753 28.7333 206.02 29 206.553 29H212.503V30.875L211.003 32H206.353C203.653 32 202.303 30.65 202.303 27.95ZM218.993 27.95V22.85C218.993 20.15 220.343 18.8 223.043 18.8H226.293C228.993 18.8 230.343 20.15 230.343 22.85V26.675H222.443V28.2C222.443 28.7333 222.709 29 223.243 29H229.843V30.875L228.343 32H223.043C220.343 32 218.993 30.65 218.993 27.95ZM222.443 24.025H226.893V22.6C226.893 22.0667 226.626 21.8 226.093 21.8H223.243C222.709 21.8 222.443 22.0667 222.443 22.6V24.025ZM237.043 30.875V29H242.793C243.36 29 243.643 28.6833 243.643 28.05C243.643 27.4 243.41 27.0333 242.943 26.95L240.243 26.5C238.11 26.1333 237.043 24.9 237.043 22.8C237.043 20.1333 238.393 18.8 241.093 18.8H244.968L246.468 19.925V21.8H241.293C240.727 21.8 240.443 22.1167 240.443 22.75C240.443 23.4167 240.702 23.7917 241.218 23.875L243.893 24.325C246.01 24.675 247.068 25.8917 247.068 27.975C247.068 30.6583 245.71 32 242.993 32H238.543L237.043 30.875Z"/>
</mask>
<path d="M97.05 32V14.75H105.45C108.25 14.75 109.65 16.15 109.65 18.95V21.8C109.65 23.8833 108.875 25.1833 107.325 25.7L110.15 31.25L109.725 32H106.625L103.575 26H100.65V32H97.05ZM100.65 22.75H105.3C105.8 22.75 106.05 22.5 106.05 22V18.75C106.05 18.25 105.8 18 105.3 18H100.65V22.75ZM116.561 27.95V22.85C116.561 20.15 117.911 18.8 120.611 18.8H123.861C126.561 18.8 127.911 20.15 127.911 22.85V26.675H120.011V28.2C120.011 28.7333 120.278 29 120.811 29H127.411V30.875L125.911 32H120.611C117.911 32 116.561 30.65 116.561 27.95ZM120.011 24.025H124.461V22.6C124.461 22.0667 124.194 21.8 123.661 21.8H120.811C120.278 21.8 120.011 22.0667 120.011 22.6V24.025ZM134.612 30.875V29H140.362C140.928 29 141.212 28.6833 141.212 28.05C141.212 27.4 140.978 27.0333 140.512 26.95L137.812 26.5C135.678 26.1333 134.612 24.9 134.612 22.8C134.612 20.1333 135.962 18.8 138.662 18.8H142.537L144.037 19.925V21.8H138.862C138.295 21.8 138.012 22.1167 138.012 22.75C138.012 23.4167 138.27 23.7917 138.787 23.875L141.462 24.325C143.578 24.675 144.637 25.8917 144.637 27.975C144.637 30.6583 143.278 32 140.562 32H136.112L134.612 30.875ZM151.307 27.95V22.85C151.307 20.15 152.657 18.8 155.357 18.8H158.857C161.557 18.8 162.907 20.15 162.907 22.85V27.95C162.907 30.65 161.557 32 158.857 32H155.357C152.657 32 151.307 30.65 151.307 27.95ZM154.757 28.2C154.757 28.7333 155.024 29 155.557 29H158.657C159.19 29 159.457 28.7333 159.457 28.2V22.6C159.457 22.0667 159.19 21.8 158.657 21.8H155.557C155.024 21.8 154.757 22.0667 154.757 22.6V28.2ZM169.952 27.95V18.8H173.402V28.2C173.402 28.7333 173.669 29 174.202 29H177.852V18.8H181.302V32H174.002C171.302 32 169.952 30.65 169.952 27.95ZM188.546 32V20.5C189.162 19.3667 190.346 18.8 192.096 18.8H194.796L196.296 19.925V21.8H193.021C192.521 21.8 192.179 21.925 191.996 22.175V32H188.546ZM202.303 27.95V22.85C202.303 20.15 203.653 18.8 206.353 18.8H211.003L212.503 19.925V21.8H206.553C206.02 21.8 205.753 22.0667 205.753 22.6V28.2C205.753 28.7333 206.02 29 206.553 29H212.503V30.875L211.003 32H206.353C203.653 32 202.303 30.65 202.303 27.95ZM218.993 27.95V22.85C218.993 20.15 220.343 18.8 223.043 18.8H226.293C228.993 18.8 230.343 20.15 230.343 22.85V26.675H222.443V28.2C222.443 28.7333 222.709 29 223.243 29H229.843V30.875L228.343 32H223.043C220.343 32 218.993 30.65 218.993 27.95ZM222.443 24.025H226.893V22.6C226.893 22.0667 226.626 21.8 226.093 21.8H223.243C222.709 21.8 222.443 22.0667 222.443 22.6V24.025ZM237.043 30.875V29H242.793C243.36 29 243.643 28.6833 243.643 28.05C243.643 27.4 243.41 27.0333 242.943 26.95L240.243 26.5C238.11 26.1333 237.043 24.9 237.043 22.8C237.043 20.1333 238.393 18.8 241.093 18.8H244.968L246.468 19.925V21.8H241.293C240.727 21.8 240.443 22.1167 240.443 22.75C240.443 23.4167 240.702 23.7917 241.218 23.875L243.893 24.325C246.01 24.675 247.068 25.8917 247.068 27.975C247.068 30.6583 245.71 32 242.993 32H238.543L237.043 30.875Z" fill="white"/>
<path d="M97.05 32H96.05V33H97.05V32ZM97.05 14.75V13.75H96.05V14.75H97.05ZM107.325 25.7L107.009 24.7513L105.907 25.1186L106.434 26.1536L107.325 25.7ZM110.15 31.25L111.02 31.743L111.285 31.2754L111.041 30.7964L110.15 31.25ZM109.725 32V33H110.308L110.595 32.493L109.725 32ZM106.625 32L105.734 32.4531L106.012 33H106.625V32ZM103.575 26L104.466 25.5469L104.188 25H103.575V26ZM100.65 26V25H99.65V26H100.65ZM100.65 32V33H101.65V32H100.65ZM100.65 22.75H99.65V23.75H100.65V22.75ZM100.65 18V17H99.65V18H100.65ZM98.05 32V14.75H96.05V32H98.05ZM97.05 15.75H105.45V13.75H97.05V15.75ZM105.45 15.75C106.696 15.75 107.447 16.0608 107.893 16.5071C108.339 16.9534 108.65 17.7041 108.65 18.95H110.65C110.65 17.3959 110.261 16.0466 109.307 15.0929C108.353 14.1392 107.004 13.75 105.45 13.75V15.75ZM108.65 18.95V21.8H110.65V18.95H108.65ZM108.65 21.8C108.65 22.7265 108.477 23.378 108.21 23.8254C107.955 24.2525 107.576 24.5623 107.009 24.7513L107.641 26.6487C108.624 26.3211 109.407 25.7225 109.928 24.8496C110.436 23.997 110.65 22.9569 110.65 21.8H108.65ZM106.434 26.1536L109.259 31.7036L111.041 30.7964L108.216 25.2464L106.434 26.1536ZM109.28 30.757L108.855 31.507L110.595 32.493L111.02 31.743L109.28 30.757ZM109.725 31H106.625V33H109.725V31ZM107.516 31.5469L104.466 25.5469L102.684 26.4531L105.734 32.4531L107.516 31.5469ZM103.575 25H100.65V27H103.575V25ZM99.65 26V32H101.65V26H99.65ZM100.65 31H97.05V33H100.65V31ZM100.65 23.75H105.3V21.75H100.65V23.75ZM105.3 23.75C105.704 23.75 106.191 23.6483 106.57 23.2696C106.948 22.8909 107.05 22.4041 107.05 22H105.05C105.05 22.0959 105.027 21.9841 105.155 21.8554C105.284 21.7267 105.396 21.75 105.3 21.75V23.75ZM107.05 22V18.75H105.05V22H107.05ZM107.05 18.75C107.05 18.3459 106.948 17.8591 106.57 17.4804C106.191 17.1017 105.704 17 105.3 17V19C105.396 19 105.284 19.0233 105.155 18.8946C105.027 18.7659 105.05 18.6541 105.05 18.75H107.05ZM105.3 17H100.65V19H105.3V17ZM99.65 18V22.75H101.65V18H99.65ZM127.911 26.675V27.675H128.911V26.675H127.911ZM120.011 26.675V25.675H119.011V26.675H120.011ZM127.411 29H128.411V28H127.411V29ZM127.411 30.875L128.011 31.675L128.411 31.375V30.875H127.411ZM125.911 32V33H126.244L126.511 32.8L125.911 32ZM120.011 24.025H119.011V25.025H120.011V24.025ZM124.461 24.025V25.025H125.461V24.025H124.461ZM117.561 27.95V22.85H115.561V27.95H117.561ZM117.561 22.85C117.561 21.6541 117.859 20.9409 118.281 20.5196C118.702 20.0983 119.415 19.8 120.611 19.8V17.8C119.107 17.8 117.795 18.1767 116.866 19.1054C115.938 20.0341 115.561 21.3459 115.561 22.85H117.561ZM120.611 19.8H123.861V17.8H120.611V19.8ZM123.861 19.8C125.057 19.8 125.77 20.0983 126.191 20.5196C126.613 20.9409 126.911 21.6541 126.911 22.85H128.911C128.911 21.3459 128.534 20.0341 127.606 19.1054C126.677 18.1767 125.365 17.8 123.861 17.8V19.8ZM126.911 22.85V26.675H128.911V22.85H126.911ZM127.911 25.675H120.011V27.675H127.911V25.675ZM119.011 26.675V28.2H121.011V26.675H119.011ZM119.011 28.2C119.011 28.6208 119.117 29.1201 119.504 29.5071C119.891 29.8941 120.39 30 120.811 30V28C120.698 28 120.798 27.9725 120.918 28.0929C121.038 28.2132 121.011 28.3125 121.011 28.2H119.011ZM120.811 30H127.411V28H120.811V30ZM126.411 29V30.875H128.411V29H126.411ZM126.811 30.075L125.311 31.2L126.511 32.8L128.011 31.675L126.811 30.075ZM125.911 31H120.611V33H125.911V31ZM120.611 31C119.415 31 118.702 30.7017 118.281 30.2804C117.859 29.8591 117.561 29.1459 117.561 27.95H115.561C115.561 29.4541 115.938 30.7659 116.866 31.6946C117.795 32.6233 119.107 33 120.611 33V31ZM120.011 25.025H124.461V23.025H120.011V25.025ZM125.461 24.025V22.6H123.461V24.025H125.461ZM125.461 22.6C125.461 22.1792 125.355 21.6799 124.968 21.2929C124.581 20.9059 124.082 20.8 123.661 20.8V22.8C123.773 22.8 123.674 22.8275 123.554 22.7071C123.433 22.5868 123.461 22.4875 123.461 22.6H125.461ZM123.661 20.8H120.811V22.8H123.661V20.8ZM120.811 20.8C120.39 20.8 119.891 20.9059 119.504 21.2929C119.117 21.6799 119.011 22.1792 119.011 22.6H121.011C121.011 22.4875 121.038 22.5868 120.918 22.7071C120.798 22.8275 120.698 22.8 120.811 22.8V20.8ZM119.011 22.6V24.025H121.011V22.6H119.011ZM134.612 30.875H133.612V31.375L134.012 31.675L134.612 30.875ZM134.612 29V28H133.612V29H134.612ZM140.512 26.95L140.688 25.9655L140.676 25.9636L140.512 26.95ZM137.812 26.5L137.642 27.4856L137.647 27.4864L137.812 26.5ZM142.537 18.8L143.137 18L142.87 17.8H142.537V18.8ZM144.037 19.925H145.037V19.425L144.637 19.125L144.037 19.925ZM144.037 21.8V22.8H145.037V21.8H144.037ZM138.787 23.875L138.953 22.8888L138.946 22.8878L138.787 23.875ZM141.462 24.325L141.296 25.3111L141.299 25.3116L141.462 24.325ZM136.112 32L135.512 32.8L135.778 33H136.112V32ZM135.612 30.875V29H133.612V30.875H135.612ZM134.612 30H140.362V28H134.612V30ZM140.362 30C140.83 30 141.355 29.8641 141.744 29.4293C142.115 29.0156 142.212 28.4951 142.212 28.05H140.212C140.212 28.137 140.202 28.1754 140.2 28.1798C140.2 28.1808 140.212 28.1431 140.254 28.0957C140.274 28.0728 140.298 28.0525 140.323 28.0359C140.347 28.0194 140.369 28.0093 140.384 28.0035C140.414 27.9926 140.413 28 140.362 28V30ZM142.212 28.05C142.212 27.6229 142.138 27.1553 141.88 26.7506C141.599 26.3083 141.168 26.0514 140.688 25.9656L140.336 27.9344C140.341 27.9353 140.315 27.9312 140.277 27.9068C140.237 27.8813 140.209 27.8493 140.193 27.8244C140.179 27.8028 140.185 27.8017 140.193 27.8393C140.202 27.8777 140.212 27.9452 140.212 28.05H142.212ZM140.676 25.9636L137.976 25.5136L137.647 27.4864L140.347 27.9364L140.676 25.9636ZM137.981 25.5145C137.067 25.3574 136.507 25.0374 136.168 24.6458C135.833 24.2581 135.612 23.6806 135.612 22.8H133.612C133.612 24.0194 133.924 25.1086 134.655 25.9542C135.383 26.796 136.423 27.2759 137.642 27.4855L137.981 25.5145ZM135.612 22.8C135.612 21.624 135.908 20.9249 136.327 20.5115C136.748 20.0958 137.463 19.8 138.662 19.8V17.8C137.161 17.8 135.851 18.1709 134.922 19.0885C133.99 20.0084 133.612 21.3094 133.612 22.8H135.612ZM138.662 19.8H142.537V17.8H138.662V19.8ZM141.937 19.6L143.437 20.725L144.637 19.125L143.137 18L141.937 19.6ZM143.037 19.925V21.8H145.037V19.925H143.037ZM144.037 20.8H138.862V22.8H144.037V20.8ZM138.862 20.8C138.394 20.8 137.868 20.9359 137.479 21.3707C137.109 21.7844 137.012 22.3049 137.012 22.75H139.012C139.012 22.663 139.022 22.6246 139.023 22.6202C139.023 22.6192 139.012 22.6569 138.969 22.7043C138.949 22.7272 138.926 22.7475 138.901 22.7641C138.876 22.7806 138.854 22.7907 138.839 22.7965C138.81 22.8074 138.811 22.8 138.862 22.8V20.8ZM137.012 22.75C137.012 23.1966 137.096 23.6833 137.382 24.0986C137.69 24.545 138.144 24.7842 138.627 24.8622L138.946 22.8878C138.921 22.8837 138.93 22.8812 138.957 22.8971C138.986 22.9145 139.012 22.9396 139.029 22.9639C139.044 22.9853 139.039 22.9884 139.031 22.9546C139.022 22.9194 139.012 22.8542 139.012 22.75H137.012ZM138.621 24.8611L141.296 25.3111L141.628 23.3389L138.953 22.8889L138.621 24.8611ZM141.299 25.3116C142.204 25.4613 142.756 25.7741 143.088 26.1563C143.418 26.5348 143.637 27.1025 143.637 27.975H145.637C145.637 26.7642 145.327 25.6819 144.597 24.8437C143.872 24.0092 142.836 23.5387 141.625 23.3384L141.299 25.3116ZM143.637 27.975C143.637 29.1594 143.338 29.8647 142.915 30.2823C142.49 30.7022 141.769 31 140.562 31V33C142.071 33 143.387 32.627 144.321 31.7052C145.256 30.7812 145.637 29.474 145.637 27.975H143.637ZM140.562 31H136.112V33H140.562V31ZM136.712 31.2L135.212 30.075L134.012 31.675L135.512 32.8L136.712 31.2ZM152.307 27.95V22.85H150.307V27.95H152.307ZM152.307 22.85C152.307 21.6541 152.605 20.9409 153.027 20.5196C153.448 20.0983 154.161 19.8 155.357 19.8V17.8C153.853 17.8 152.541 18.1767 151.612 19.1054C150.684 20.0341 150.307 21.3459 150.307 22.85H152.307ZM155.357 19.8H158.857V17.8H155.357V19.8ZM158.857 19.8C160.053 19.8 160.766 20.0983 161.187 20.5196C161.609 20.9409 161.907 21.6541 161.907 22.85H163.907C163.907 21.3459 163.53 20.0341 162.602 19.1054C161.673 18.1767 160.361 17.8 158.857 17.8V19.8ZM161.907 22.85V27.95H163.907V22.85H161.907ZM161.907 27.95C161.907 29.1459 161.609 29.8591 161.187 30.2804C160.766 30.7017 160.053 31 158.857 31V33C160.361 33 161.673 32.6233 162.602 31.6946C163.53 30.7659 163.907 29.4541 163.907 27.95H161.907ZM158.857 31H155.357V33H158.857V31ZM155.357 31C154.161 31 153.448 30.7017 153.027 30.2804C152.605 29.8591 152.307 29.1459 152.307 27.95H150.307C150.307 29.4541 150.684 30.7659 151.612 31.6946C152.541 32.6233 153.853 33 155.357 33V31ZM153.757 28.2C153.757 28.6208 153.863 29.1201 154.25 29.5071C154.637 29.8941 155.136 30 155.557 30V28C155.445 28 155.544 27.9725 155.664 28.0929C155.784 28.2132 155.757 28.3125 155.757 28.2H153.757ZM155.557 30H158.657V28H155.557V30ZM158.657 30C159.078 30 159.577 29.8941 159.964 29.5071C160.351 29.1201 160.457 28.6208 160.457 28.2H158.457C158.457 28.3125 158.43 28.2132 158.55 28.0929C158.67 27.9725 158.77 28 158.657 28V30ZM160.457 28.2V22.6H158.457V28.2H160.457ZM160.457 22.6C160.457 22.1792 160.351 21.6799 159.964 21.2929C159.577 20.9059 159.078 20.8 158.657 20.8V22.8C158.77 22.8 158.67 22.8275 158.55 22.7071C158.43 22.5868 158.457 22.4875 158.457 22.6H160.457ZM158.657 20.8H155.557V22.8H158.657V20.8ZM155.557 20.8C155.136 20.8 154.637 20.9059 154.25 21.2929C153.863 21.6799 153.757 22.1792 153.757 22.6H155.757C155.757 22.4875 155.784 22.5868 155.664 22.7071C155.544 22.8275 155.445 22.8 155.557 22.8V20.8ZM153.757 22.6V28.2H155.757V22.6H153.757ZM169.952 18.8V17.8H168.952V18.8H169.952ZM173.402 18.8H174.402V17.8H173.402V18.8ZM177.852 29V30H178.852V29H177.852ZM177.852 18.8V17.8H176.852V18.8H177.852ZM181.302 18.8H182.302V17.8H181.302V18.8ZM181.302 32V33H182.302V32H181.302ZM170.952 27.95V18.8H168.952V27.95H170.952ZM169.952 19.8H173.402V17.8H169.952V19.8ZM172.402 18.8V28.2H174.402V18.8H172.402ZM172.402 28.2C172.402 28.6208 172.508 29.1201 172.895 29.5071C173.282 29.8941 173.781 30 174.202 30V28C174.089 28 174.189 27.9725 174.309 28.0929C174.429 28.2132 174.402 28.3125 174.402 28.2H172.402ZM174.202 30H177.852V28H174.202V30ZM178.852 29V18.8H176.852V29H178.852ZM177.852 19.8H181.302V17.8H177.852V19.8ZM180.302 18.8V32H182.302V18.8H180.302ZM181.302 31H174.002V33H181.302V31ZM174.002 31C172.806 31 172.093 30.7017 171.672 30.2804C171.25 29.8591 170.952 29.1459 170.952 27.95H168.952C168.952 29.4541 169.329 30.7659 170.257 31.6946C171.186 32.6233 172.498 33 174.002 33V31ZM188.546 32H187.546V33H188.546V32ZM188.546 20.5L187.667 20.0221L187.546 20.2456V20.5H188.546ZM194.796 18.8L195.396 18L195.129 17.8H194.796V18.8ZM196.296 19.925H197.296V19.425L196.896 19.125L196.296 19.925ZM196.296 21.8V22.8H197.296V21.8H196.296ZM191.996 22.175L191.189 21.5836L190.996 21.8476V22.175H191.996ZM191.996 32V33H192.996V32H191.996ZM189.546 32V20.5H187.546V32H189.546ZM189.424 20.9779C189.804 20.2791 190.563 19.8 192.096 19.8V17.8C190.129 17.8 188.52 18.4542 187.667 20.0221L189.424 20.9779ZM192.096 19.8H194.796V17.8H192.096V19.8ZM194.196 19.6L195.696 20.725L196.896 19.125L195.396 18L194.196 19.6ZM195.296 19.925V21.8H197.296V19.925H195.296ZM196.296 20.8H193.021V22.8H196.296V20.8ZM193.021 20.8C192.399 20.8 191.653 20.9511 191.189 21.5836L192.802 22.7664C192.783 22.7929 192.761 22.8124 192.744 22.8247C192.728 22.8363 192.722 22.8371 192.733 22.8329C192.761 22.8226 192.847 22.8 193.021 22.8V20.8ZM190.996 22.175V32H192.996V22.175H190.996ZM191.996 31H188.546V33H191.996V31ZM211.003 18.8L211.603 18L211.336 17.8H211.003V18.8ZM212.503 19.925H213.503V19.425L213.103 19.125L212.503 19.925ZM212.503 21.8V22.8H213.503V21.8H212.503ZM212.503 29H213.503V28H212.503V29ZM212.503 30.875L213.103 31.675L213.503 31.375V30.875H212.503ZM211.003 32V33H211.336L211.603 32.8L211.003 32ZM203.303 27.95V22.85H201.303V27.95H203.303ZM203.303 22.85C203.303 21.6541 203.601 20.9409 204.023 20.5196C204.444 20.0983 205.157 19.8 206.353 19.8V17.8C204.849 17.8 203.537 18.1767 202.609 19.1054C201.68 20.0341 201.303 21.3459 201.303 22.85H203.303ZM206.353 19.8H211.003V17.8H206.353V19.8ZM210.403 19.6L211.903 20.725L213.103 19.125L211.603 18L210.403 19.6ZM211.503 19.925V21.8H213.503V19.925H211.503ZM212.503 20.8H206.553V22.8H212.503V20.8ZM206.553 20.8C206.132 20.8 205.633 20.9059 205.246 21.2929C204.859 21.6799 204.753 22.1792 204.753 22.6H206.753C206.753 22.4875 206.781 22.5868 206.66 22.7071C206.54 22.8275 206.441 22.8 206.553 22.8V20.8ZM204.753 22.6V28.2H206.753V22.6H204.753ZM204.753 28.2C204.753 28.6208 204.859 29.1201 205.246 29.5071C205.633 29.8941 206.132 30 206.553 30V28C206.441 28 206.54 27.9725 206.66 28.0929C206.781 28.2132 206.753 28.3125 206.753 28.2H204.753ZM206.553 30H212.503V28H206.553V30ZM211.503 29V30.875H213.503V29H211.503ZM211.903 30.075L210.403 31.2L211.603 32.8L213.103 31.675L211.903 30.075ZM211.003 31H206.353V33H211.003V31ZM206.353 31C205.157 31 204.444 30.7017 204.023 30.2804C203.601 29.8591 203.303 29.1459 203.303 27.95H201.303C201.303 29.4541 201.68 30.7659 202.609 31.6946C203.537 32.6233 204.849 33 206.353 33V31ZM230.343 26.675V27.675H231.343V26.675H230.343ZM222.443 26.675V25.675H221.443V26.675H222.443ZM229.843 29H230.843V28H229.843V29ZM229.843 30.875L230.443 31.675L230.843 31.375V30.875H229.843ZM228.343 32V33H228.676L228.943 32.8L228.343 32ZM222.443 24.025H221.443V25.025H222.443V24.025ZM226.893 24.025V25.025H227.893V24.025H226.893ZM219.993 27.95V22.85H217.993V27.95H219.993ZM219.993 22.85C219.993 21.6541 220.291 20.9409 220.712 20.5196C221.134 20.0983 221.847 19.8 223.043 19.8V17.8C221.538 17.8 220.227 18.1767 219.298 19.1054C218.369 20.0341 217.993 21.3459 217.993 22.85H219.993ZM223.043 19.8H226.293V17.8H223.043V19.8ZM226.293 19.8C227.488 19.8 228.202 20.0983 228.623 20.5196C229.044 20.9409 229.343 21.6541 229.343 22.85H231.343C231.343 21.3459 230.966 20.0341 230.037 19.1054C229.109 18.1767 227.797 17.8 226.293 17.8V19.8ZM229.343 22.85V26.675H231.343V22.85H229.343ZM230.343 25.675H222.443V27.675H230.343V25.675ZM221.443 26.675V28.2H223.443V26.675H221.443ZM221.443 28.2C221.443 28.6208 221.548 29.1201 221.935 29.5071C222.322 29.8941 222.822 30 223.243 30V28C223.13 28 223.229 27.9725 223.35 28.0929C223.47 28.2132 223.443 28.3125 223.443 28.2H221.443ZM223.243 30H229.843V28H223.243V30ZM228.843 29V30.875H230.843V29H228.843ZM229.243 30.075L227.743 31.2L228.943 32.8L230.443 31.675L229.243 30.075ZM228.343 31H223.043V33H228.343V31ZM223.043 31C221.847 31 221.134 30.7017 220.712 30.2804C220.291 29.8591 219.993 29.1459 219.993 27.95H217.993C217.993 29.4541 218.369 30.7659 219.298 31.6946C220.227 32.6233 221.538 33 223.043 33V31ZM222.443 25.025H226.893V23.025H222.443V25.025ZM227.893 24.025V22.6H225.893V24.025H227.893ZM227.893 22.6C227.893 22.1792 227.787 21.6799 227.4 21.2929C227.013 20.9059 226.513 20.8 226.093 20.8V22.8C226.205 22.8 226.106 22.8275 225.985 22.7071C225.865 22.5868 225.893 22.4875 225.893 22.6H227.893ZM226.093 20.8H223.243V22.8H226.093V20.8ZM223.243 20.8C222.822 20.8 222.322 20.9059 221.935 21.2929C221.548 21.6799 221.443 22.1792 221.443 22.6H223.443C223.443 22.4875 223.47 22.5868 223.35 22.7071C223.229 22.8275 223.13 22.8 223.243 22.8V20.8ZM221.443 22.6V24.025H223.443V22.6H221.443ZM237.043 30.875H236.043V31.375L236.443 31.675L237.043 30.875ZM237.043 29V28H236.043V29H237.043ZM242.943 26.95L243.119 25.9655L243.108 25.9636L242.943 26.95ZM240.243 26.5L240.074 27.4856L240.079 27.4864L240.243 26.5ZM244.968 18.8L245.568 18L245.302 17.8H244.968V18.8ZM246.468 19.925H247.468V19.425L247.068 19.125L246.468 19.925ZM246.468 21.8V22.8H247.468V21.8H246.468ZM241.218 23.875L241.384 22.8888L241.378 22.8878L241.218 23.875ZM243.893 24.325L243.727 25.3111L243.73 25.3116L243.893 24.325ZM238.543 32L237.943 32.8L238.21 33H238.543V32ZM238.043 30.875V29H236.043V30.875H238.043ZM237.043 30H242.793V28H237.043V30ZM242.793 30C243.261 30 243.787 29.8641 244.176 29.4293C244.546 29.0156 244.643 28.4951 244.643 28.05H242.643C242.643 28.137 242.633 28.1754 242.632 28.1798C242.632 28.1808 242.643 28.1431 242.686 28.0957C242.706 28.0728 242.73 28.0525 242.754 28.0359C242.779 28.0194 242.801 28.0093 242.816 28.0035C242.846 27.9926 242.844 28 242.793 28V30ZM244.643 28.05C244.643 27.6229 244.57 27.1553 244.312 26.7506C244.031 26.3083 243.6 26.0514 243.119 25.9656L242.768 27.9344C242.772 27.9353 242.747 27.9312 242.709 27.9068C242.669 27.8813 242.641 27.8493 242.625 27.8244C242.611 27.8028 242.616 27.8017 242.625 27.8393C242.634 27.8777 242.643 27.9452 242.643 28.05H244.643ZM243.108 25.9636L240.408 25.5136L240.079 27.4864L242.779 27.9364L243.108 25.9636ZM240.413 25.5145C239.499 25.3574 238.938 25.0374 238.6 24.6458C238.264 24.2581 238.043 23.6806 238.043 22.8H236.043C236.043 24.0194 236.356 25.1086 237.087 25.9542C237.815 26.796 238.854 27.2759 240.074 27.4855L240.413 25.5145ZM238.043 22.8C238.043 21.624 238.34 20.9249 238.759 20.5115C239.179 20.0958 239.894 19.8 241.093 19.8V17.8C239.592 17.8 238.282 18.1709 237.353 19.0885C236.422 20.0084 236.043 21.3094 236.043 22.8H238.043ZM241.093 19.8H244.968V17.8H241.093V19.8ZM244.368 19.6L245.868 20.725L247.068 19.125L245.568 18L244.368 19.6ZM245.468 19.925V21.8H247.468V19.925H245.468ZM246.468 20.8H241.293V22.8H246.468V20.8ZM241.293 20.8C240.825 20.8 240.3 20.9359 239.911 21.3707C239.541 21.7844 239.443 22.3049 239.443 22.75H241.443C241.443 22.663 241.453 22.6246 241.455 22.6202C241.455 22.6192 241.444 22.6569 241.401 22.7043C241.381 22.7272 241.357 22.7475 241.332 22.7641C241.308 22.7806 241.286 22.7907 241.271 22.7965C241.241 22.8074 241.242 22.8 241.293 22.8V20.8ZM239.443 22.75C239.443 23.1966 239.528 23.6833 239.814 24.0986C240.121 24.545 240.575 24.7842 241.059 24.8622L241.378 22.8878C241.352 22.8837 241.362 22.8812 241.388 22.8971C241.418 22.9145 241.444 22.9396 241.461 22.9639C241.475 22.9853 241.471 22.9884 241.462 22.9546C241.454 22.9194 241.443 22.8542 241.443 22.75H239.443ZM241.052 24.8611L243.727 25.3111L244.059 23.3389L241.384 22.8889L241.052 24.8611ZM243.73 25.3116C244.635 25.4613 245.188 25.7741 245.52 26.1563C245.849 26.5348 246.068 27.1025 246.068 27.975H248.068C248.068 26.7642 247.758 25.6819 247.029 24.8437C246.303 24.0092 245.268 23.5387 244.057 23.3384L243.73 25.3116ZM246.068 27.975C246.068 29.1594 245.77 29.8647 245.347 30.2823C244.922 30.7022 244.201 31 242.993 31V33C244.503 33 245.819 32.627 246.752 31.7052C247.688 30.7812 248.068 29.474 248.068 27.975H246.068ZM242.993 31H238.543V33H242.993V31ZM239.143 31.2L237.643 30.075L236.443 31.675L237.943 32.8L239.143 31.2Z" fill="black" mask="url(#path-3-outside-1_15_3951)"/>
</svg>
